<svg width="40" height="40" viewBox="0 0 40 40" fill="none" xmlns="http://www.w3.org/2000/svg">
<g clip-path="url(#clip0_41_2489)">
<path d="M3.61621 12.16V27.84C3.61621 28.848 4.14421 29.76 5.02421 30.272L18.6082 38.112C19.4722 38.608 20.5442 38.608 21.4082 38.112L34.9922 30.272C35.8562 29.776 36.4002 28.848 36.4002 27.84V12.16C36.4002 11.152 35.8722 10.24 34.9922 9.72799L21.4082 1.88799C20.5442 1.39199 19.4722 1.39199 18.6082 1.88799L5.02421 9.72799C4.16021 10.224 3.63221 11.152 3.63221 12.16H3.61621Z" fill="#213147"/>
<path d="M22.9603 23.04L21.0243 28.352C20.9763 28.496 20.9763 28.656 21.0243 28.816L24.3523 37.952L28.2083 35.728L23.5843 23.04C23.4723 22.752 23.0723 22.752 22.9603 23.04Z" fill="#12AAFF"/>
<path d="M26.848 14.112C26.736 13.824 26.336 13.824 26.224 14.112L24.288 19.424C24.24 19.568 24.24 19.728 24.288 19.888L29.744 34.848L33.6 32.624L26.848 14.128V14.112Z" fill="#12AAFF"/>
<path d="M20.0005 2.48C20.0965 2.48 20.1925 2.512 20.2725 2.56L34.9605 11.04C35.1365 11.136 35.2325 11.328 35.2325 11.52V28.48C35.2325 28.672 35.1205 28.864 34.9605 28.96L20.2725 37.44C20.1925 37.488 20.0965 37.52 20.0005 37.52C19.9045 37.52 19.8085 37.488 19.7285 37.44L5.04046 28.96C4.86446 28.864 4.76846 28.672 4.76846 28.48V11.504C4.76846 11.312 4.88046 11.12 5.04046 11.024L19.7285 2.544C19.8085 2.496 19.9045 2.464 20.0005 2.464V2.48ZM20.0005 0C19.4725 0 18.9605 0.128 18.4805 0.4L3.79246 8.88C2.84846 9.424 2.27246 10.416 2.27246 11.504V28.464C2.27246 29.552 2.84846 30.544 3.79246 31.088L18.4805 39.568C18.9445 39.84 19.4725 39.968 20.0005 39.968C20.5285 39.968 21.0405 39.84 21.5205 39.568L36.2085 31.088C37.1525 30.544 37.7285 29.552 37.7285 28.464V11.504C37.7285 10.416 37.1525 9.424 36.2085 8.88L21.5045 0.4C21.0405 0.128 20.5125 0 19.9845 0H20.0005Z" fill="#9DCCED"/>
<path d="M10.2725 34.864L11.6325 31.152L14.3525 33.408L11.8085 35.744L10.2725 34.864Z" fill="#213147"/>
<path d="M18.752 10.304H15.024C14.752 10.304 14.496 10.48 14.4 10.736L6.41602 32.624L10.272 34.848L19.072 10.736C19.152 10.512 18.992 10.288 18.768 10.288L18.752 10.304Z" fill="white"/>
<path d="M25.2796 10.304H21.5516C21.2796 10.304 21.0236 10.48 20.9276 10.736L11.8076 35.728L15.6636 37.952L25.5836 10.736C25.6636 10.512 25.5036 10.288 25.2796 10.288V10.304Z" fill="white"/>
</g>
<defs>
<clipPath id="clip0_41_2489">
<rect width="40" height="40" fill="white"/>
</clipPath>
</defs>
</svg>
