<svg width="40" height="40" viewBox="0 0 40 40" fill="none" xmlns="http://www.w3.org/2000/svg">
<g clip-path="url(#clip0_43_2642)">
<mask id="mask0_43_2642" style="mask-type:luminance" maskUnits="userSpaceOnUse" x="0" y="0" width="40" height="40">
<path d="M20 40C8.9536 40 0 31.0464 0 20C0 8.9536 8.9536 0 20 0C31.0464 0 40 8.9536 40 20C40 31.0464 31.0464 40 20 40Z" fill="white"/>
</mask>
<g mask="url(#mask0_43_2642)">
<path fill-rule="evenodd" clip-rule="evenodd" d="M19.9999 19.9998L-8.28809 19.8254L-8.26249 18.7854L19.9999 19.9998Z" fill="#FEFEFF"/>
<path fill-rule="evenodd" clip-rule="evenodd" d="M19.9996 19.9999L-8.26758 18.9583L-8.22438 18.0911L19.9996 19.9999Z" fill="#FDFEFF"/>
<path fill-rule="evenodd" clip-rule="evenodd" d="M20.0002 19.9999L-8.2334 18.2655L-8.1694 17.3999L20.0002 19.9999Z" fill="#FCFDFF"/>
<path fill-rule="evenodd" clip-rule="evenodd" d="M19.9998 19.9999L-8.18262 17.5727L-8.09782 16.7087L19.9998 19.9999Z" fill="#FBFCFF"/>
<path fill-rule="evenodd" clip-rule="evenodd" d="M20.0003 20L-8.11328 16.8816L-8.00768 16.0208L20.0003 20Z" fill="#FAFCFF"/>
<path fill-rule="evenodd" clip-rule="evenodd" d="M19.9995 19.9998L-8.0293 16.1934L-7.9029 15.3342L19.9995 19.9998Z" fill="#F9FBFF"/>
<path fill-rule="evenodd" clip-rule="evenodd" d="M19.9996 19.9999L-7.92676 15.5055L-7.77956 14.6511L19.9996 19.9999Z" fill="#F8FAFF"/>
<path fill-rule="evenodd" clip-rule="evenodd" d="M20.0004 20L-7.80762 14.8224L-7.63962 13.9712L20.0004 20Z" fill="#F7FAFF"/>
<path fill-rule="evenodd" clip-rule="evenodd" d="M19.9998 20L-7.67383 14.1424L-7.48343 13.2944L19.9998 20Z" fill="#F6F9FF"/>
<path fill-rule="evenodd" clip-rule="evenodd" d="M20.0001 19.9999L-7.52148 13.4639L-7.31028 12.6223L20.0001 19.9999Z" fill="#F5F8FF"/>
<path fill-rule="evenodd" clip-rule="evenodd" d="M19.9995 20L-7.35254 12.7904L-7.12214 11.9536L19.9995 20Z" fill="#F4F8FF"/>
<path fill-rule="evenodd" clip-rule="evenodd" d="M20 19.9998L-7.16797 12.1214L-6.91517 11.291L20 19.9998Z" fill="#F3F7FF"/>
<path fill-rule="evenodd" clip-rule="evenodd" d="M19.9996 19.9999L-6.9668 11.4575L-6.6932 10.6335L19.9996 19.9999Z" fill="#F2F6FF"/>
<path fill-rule="evenodd" clip-rule="evenodd" d="M19.9998 19.9999L-6.74902 10.7983L-6.45622 9.98071L19.9998 19.9999Z" fill="#F1F6FF"/>
<path fill-rule="evenodd" clip-rule="evenodd" d="M19.9999 19.9998L-6.51367 10.1438L-6.20167 9.33423L19.9999 19.9998Z" fill="#F0F5FF"/>
<path fill-rule="evenodd" clip-rule="evenodd" d="M20.0003 19.9999L-6.26367 9.49594L-5.93247 8.69434L20.0003 19.9999Z" fill="#EFF4FF"/>
<path fill-rule="evenodd" clip-rule="evenodd" d="M20.0004 19.9999L-5.99805 8.85426L-5.64605 8.06226L20.0004 19.9999Z" fill="#EEF3FF"/>
<path fill-rule="evenodd" clip-rule="evenodd" d="M20 20L-5.7168 8.22077L-5.3456 7.43677L20 20Z" fill="#EDF3FF"/>
<path fill-rule="evenodd" clip-rule="evenodd" d="M19.9999 20L-5.4209 7.59363L-5.0305 6.81763L19.9999 20Z" fill="#ECF2FF"/>
<path fill-rule="evenodd" clip-rule="evenodd" d="M20.0004 20L-5.1084 6.97281L-4.6988 6.20801L20.0004 20Z" fill="#EBF1FF"/>
<path fill-rule="evenodd" clip-rule="evenodd" d="M19.9995 19.9999L-4.78125 6.36154L-4.35405 5.60474L19.9995 19.9999Z" fill="#EAF1FF"/>
<path fill-rule="evenodd" clip-rule="evenodd" d="M19.9999 19.9999L-4.43848 5.7567L-3.99208 5.0127L19.9999 19.9999Z" fill="#E9F0FF"/>
<path fill-rule="evenodd" clip-rule="evenodd" d="M19.9996 19.9998L-4.08203 5.1614L-3.61803 4.427L19.9996 19.9998Z" fill="#E8EFFF"/>
<path fill-rule="evenodd" clip-rule="evenodd" d="M19.9995 20L-3.71094 4.57438L-3.22774 3.85278L19.9995 20Z" fill="#E7EFFF"/>
<path fill-rule="evenodd" clip-rule="evenodd" d="M19.9996 19.9998L-3.3252 3.99664L-2.826 3.28784L19.9996 19.9998Z" fill="#E6EEFF"/>
<path fill-rule="evenodd" clip-rule="evenodd" d="M20 19.9999L-2.9248 3.43027L-2.408 2.73267L20 19.9999Z" fill="#E5EDFF"/>
<path fill-rule="evenodd" clip-rule="evenodd" d="M20.0003 19.9998L-2.51172 2.87181L-1.97732 2.18701L20.0003 19.9998Z" fill="#E4EDFF"/>
<path fill-rule="evenodd" clip-rule="evenodd" d="M19.9998 19.9999L-2.08496 2.3247L-1.53456 1.6543L19.9998 19.9999Z" fill="#E3ECFF"/>
<path fill-rule="evenodd" clip-rule="evenodd" d="M19.9996 19.9999L-1.64355 1.7887L-1.07715 1.1311L19.9996 19.9999Z" fill="#E2EBFF"/>
<path fill-rule="evenodd" clip-rule="evenodd" d="M20 19.9999L-1.19043 1.26234L-0.60803 0.619141L20 19.9999Z" fill="#E1EBFF"/>
<path fill-rule="evenodd" clip-rule="evenodd" d="M20.0002 19.9999L-0.724609 0.748673L-0.126209 0.119873L20.0002 19.9999Z" fill="#E0EAFF"/>
<path fill-rule="evenodd" clip-rule="evenodd" d="M20.0003 19.9998L-0.246094 0.246236L0.368306 -0.368164L20.0003 19.9998Z" fill="#DFE9FF"/>
<path fill-rule="evenodd" clip-rule="evenodd" d="M19.9997 19.9999L0.246094 -0.246462L0.873294 -0.843262L19.9997 19.9999Z" fill="#DEE9FF"/>
<path fill-rule="evenodd" clip-rule="evenodd" d="M20.0002 19.9998L0.749023 -0.724973L1.39222 -1.30737L20.0002 19.9998Z" fill="#DDE8FF"/>
<path fill-rule="evenodd" clip-rule="evenodd" d="M20.0003 20L1.2627 -1.19044L1.9203 -1.75684L20.0003 20Z" fill="#DCE7FF"/>
<path fill-rule="evenodd" clip-rule="evenodd" d="M20.0003 20L1.78906 -1.6432L2.45946 -2.1936L20.0003 20Z" fill="#DBE7FF"/>
<path fill-rule="evenodd" clip-rule="evenodd" d="M20.0004 19.9999L2.3252 -2.08488L3.01 -2.61768L20.0004 19.9999Z" fill="#DAE6FF"/>
<path fill-rule="evenodd" clip-rule="evenodd" d="M20.0001 20L2.87207 -2.51201L3.56967 -3.02881L20.0001 20Z" fill="#D9E5FF"/>
<path fill-rule="evenodd" clip-rule="evenodd" d="M20.0003 19.9999L3.43066 -2.92487L4.13946 -3.42407L20.0003 19.9999Z" fill="#D8E5FF"/>
<path fill-rule="evenodd" clip-rule="evenodd" d="M20.0003 20L3.99707 -3.3248L4.71867 -3.8064L20.0003 20Z" fill="#D7E4FF"/>
<path fill-rule="evenodd" clip-rule="evenodd" d="M19.9998 19.9998L4.57422 -3.71056L5.30862 -4.17456L19.9998 19.9998Z" fill="#D6E3FF"/>
<path fill-rule="evenodd" clip-rule="evenodd" d="M19.9995 19.9999L5.16113 -4.08168L5.90513 -4.52808L19.9995 19.9999Z" fill="#D5E3FF"/>
<path fill-rule="evenodd" clip-rule="evenodd" d="M20 19.9999L5.75684 -4.43852L6.51204 -4.86572L20 19.9999Z" fill="#D4E2FF"/>
<path fill-rule="evenodd" clip-rule="evenodd" d="M19.9997 20L6.36133 -4.78083L7.12613 -5.19043L19.9997 20Z" fill="#D3E1FF"/>
<path fill-rule="evenodd" clip-rule="evenodd" d="M19.9999 19.9998L6.97266 -5.109L7.74866 -5.4978L19.9999 19.9998Z" fill="#D2E0FF"/>
<path fill-rule="evenodd" clip-rule="evenodd" d="M20.0002 19.9999L7.59375 -5.42093L8.37775 -5.79053L20.0002 19.9999Z" fill="#D1E0FF"/>
<path fill-rule="evenodd" clip-rule="evenodd" d="M19.9999 20L8.2207 -5.71685L9.0143 -6.06885L19.9999 20Z" fill="#D0DFFF"/>
<path fill-rule="evenodd" clip-rule="evenodd" d="M20.0001 19.9999L8.85449 -5.9985L9.65769 -6.3313L20.0001 19.9999Z" fill="#CFDEFF"/>
<path fill-rule="evenodd" clip-rule="evenodd" d="M20.0001 19.9998L9.49609 -6.26417L10.3073 -6.57617L20.0001 19.9998Z" fill="#CEDEFF"/>
<path fill-rule="evenodd" clip-rule="evenodd" d="M19.9996 20L10.1436 -6.5136L10.9612 -6.8064L19.9996 20Z" fill="#CDDDFF"/>
<path fill-rule="evenodd" clip-rule="evenodd" d="M19.9995 19.9999L10.7979 -6.74889L11.6219 -7.01929L19.9995 19.9999Z" fill="#CCDCFF"/>
<path fill-rule="evenodd" clip-rule="evenodd" d="M19.9994 19.9998L11.457 -6.96657L12.2874 -7.21777L19.9994 19.9998Z" fill="#CBDCFF"/>
<path fill-rule="evenodd" clip-rule="evenodd" d="M19.9995 20L12.1211 -7.16804L12.9579 -7.39844L19.9995 20Z" fill="#CADBFF"/>
<path fill-rule="evenodd" clip-rule="evenodd" d="M19.9996 20L12.79 -7.35203L13.6316 -7.56323L19.9996 20Z" fill="#C9DAFF"/>
<path fill-rule="evenodd" clip-rule="evenodd" d="M19.9999 19.9999L13.4639 -7.52165L14.3103 -7.71045L19.9999 19.9999Z" fill="#C8DAFF"/>
<path fill-rule="evenodd" clip-rule="evenodd" d="M20.0002 19.9998L14.1426 -7.6738L14.9922 -7.8418L20.0002 19.9998Z" fill="#C7D9FF"/>
<path fill-rule="evenodd" clip-rule="evenodd" d="M19.9999 20L14.8223 -7.80799L15.6767 -7.95679L19.9999 20Z" fill="#C6D8FF"/>
<path fill-rule="evenodd" clip-rule="evenodd" d="M20.0003 20L15.5059 -7.92644L16.3651 -8.05444L20.0003 20Z" fill="#C5D8FF"/>
<path fill-rule="evenodd" clip-rule="evenodd" d="M19.9998 19.9999L16.1934 -8.02892L17.0542 -8.13452L19.9998 19.9999Z" fill="#C4D7FF"/>
<path fill-rule="evenodd" clip-rule="evenodd" d="M20.0002 19.9999L16.8818 -8.11369L17.7458 -8.19849L20.0002 19.9999Z" fill="#C3D6FF"/>
<path fill-rule="evenodd" clip-rule="evenodd" d="M19.9995 19.9998L17.5723 -8.18258L18.4379 -8.24658L19.9995 19.9998Z" fill="#C2D6FF"/>
<path fill-rule="evenodd" clip-rule="evenodd" d="M20 19.9998L18.2656 -8.23379L19.1328 -8.27539L20 19.9998Z" fill="#C1D5FF"/>
<path fill-rule="evenodd" clip-rule="evenodd" d="M19.9996 19.9999L18.958 -8.26729L19.8252 -8.28809L19.9996 19.9999Z" fill="#C0D4FF"/>
<path fill-rule="evenodd" clip-rule="evenodd" d="M19.9995 19.9999L19.6523 -8.28491H20.5195L19.9995 19.9999Z" fill="#BFD4FF"/>
<path fill-rule="evenodd" clip-rule="evenodd" d="M20 19.9999L20.3472 -8.28491L21.2144 -8.26251L20 19.9999Z" fill="#BED3FF"/>
<path fill-rule="evenodd" clip-rule="evenodd" d="M20 19.9999L21.0416 -8.26733L21.9072 -8.22413L20 19.9999Z" fill="#BDD2FF"/>
<path fill-rule="evenodd" clip-rule="evenodd" d="M20 20L21.7344 -8.23364L22.6 -8.16964L20 20Z" fill="#BCD2FF"/>
<path fill-rule="evenodd" clip-rule="evenodd" d="M20 20L22.4272 -8.18237L23.2912 -8.09757L20 20Z" fill="#BBD1FF"/>
<path fill-rule="evenodd" clip-rule="evenodd" d="M20 19.9998L23.1168 -8.11377L23.9792 -8.00817L20 19.9998Z" fill="#BAD0FF"/>
<path fill-rule="evenodd" clip-rule="evenodd" d="M20 20L23.8064 -8.02881L24.6656 -7.90241L20 20Z" fill="#B9D0FF"/>
<path fill-rule="evenodd" clip-rule="evenodd" d="M20 19.9999L24.4928 -7.92651L25.3488 -7.77931L20 19.9999Z" fill="#B8CFFF"/>
<path fill-rule="evenodd" clip-rule="evenodd" d="M20 19.9999L25.1776 -7.80811L26.0288 -7.64011L20 19.9999Z" fill="#B7CEFF"/>
<path fill-rule="evenodd" clip-rule="evenodd" d="M20 20L25.8576 -7.67358L26.7056 -7.48318L20 20Z" fill="#B6CDFF"/>
<path fill-rule="evenodd" clip-rule="evenodd" d="M20 19.9999L26.536 -7.52173L27.3776 -7.31053L20 19.9999Z" fill="#B5CDFF"/>
<path fill-rule="evenodd" clip-rule="evenodd" d="M20 19.9999L27.2096 -7.35205L28.0448 -7.12165L20 19.9999Z" fill="#B4CCFF"/>
<path fill-rule="evenodd" clip-rule="evenodd" d="M20 20L27.8784 -7.16797L28.7088 -6.91517L20 20Z" fill="#B3CBFF"/>
<path fill-rule="evenodd" clip-rule="evenodd" d="M20 19.9998L28.5424 -6.96655L29.3664 -6.69295L20 19.9998Z" fill="#B2CBFF"/>
<path fill-rule="evenodd" clip-rule="evenodd" d="M20 20L29.2016 -6.74878L30.0192 -6.45598L20 20Z" fill="#B1CAFF"/>
<path fill-rule="evenodd" clip-rule="evenodd" d="M20 19.9999L29.856 -6.51367L30.6656 -6.20167L20 19.9999Z" fill="#B0C9FF"/>
<path fill-rule="evenodd" clip-rule="evenodd" d="M20 19.9998L30.5024 -6.26416L31.3056 -5.93296L20 19.9998Z" fill="#AFC9FF"/>
<path fill-rule="evenodd" clip-rule="evenodd" d="M20 19.9999L31.144 -5.99854L31.9376 -5.64654L20 19.9999Z" fill="#AEC8FF"/>
<path fill-rule="evenodd" clip-rule="evenodd" d="M20 20L31.7792 -5.7168L32.5632 -5.3456L20 20Z" fill="#ADC7FF"/>
<path fill-rule="evenodd" clip-rule="evenodd" d="M20 19.9999L32.4064 -5.4209L33.1824 -5.0305L20 19.9999Z" fill="#ACC7FF"/>
<path fill-rule="evenodd" clip-rule="evenodd" d="M20 19.9999L33.0272 -5.10889L33.792 -4.69929L20 19.9999Z" fill="#ABC6FF"/>
<path fill-rule="evenodd" clip-rule="evenodd" d="M20 19.9998L33.6384 -4.78101L34.3952 -4.35381L20 19.9998Z" fill="#AAC5FF"/>
<path fill-rule="evenodd" clip-rule="evenodd" d="M20 19.9999L34.2432 -4.43848L34.9872 -3.99208L20 19.9999Z" fill="#A9C5FF"/>
<path fill-rule="evenodd" clip-rule="evenodd" d="M20 19.9998L34.8384 -4.08179L35.5712 -3.61779L20 19.9998Z" fill="#A8C4FF"/>
<path fill-rule="evenodd" clip-rule="evenodd" d="M20 20L35.4256 -3.71045L36.1472 -3.22725L20 20Z" fill="#A7C3FF"/>
<path fill-rule="evenodd" clip-rule="evenodd" d="M20 19.9998L36.0032 -3.32495L36.712 -2.82575L20 19.9998Z" fill="#A6C3FF"/>
<path fill-rule="evenodd" clip-rule="evenodd" d="M20 20L36.5696 -2.9248L37.2672 -2.408L20 20Z" fill="#A5C2FF"/>
<path fill-rule="evenodd" clip-rule="evenodd" d="M20 19.9998L37.128 -2.51221L37.8112 -1.97781L20 19.9998Z" fill="#A4C1FF"/>
<path fill-rule="evenodd" clip-rule="evenodd" d="M20 19.9998L37.6752 -2.08496L38.3456 -1.53456L20 19.9998Z" fill="#A3C1FF"/>
<path fill-rule="evenodd" clip-rule="evenodd" d="M20 19.9999L38.2112 -1.64331L38.8688 -1.07691L20 19.9999Z" fill="#A2C0FF"/>
<path fill-rule="evenodd" clip-rule="evenodd" d="M20 20L38.7376 -1.19043L39.3808 -0.60803L20 20Z" fill="#A1BFFF"/>
<path fill-rule="evenodd" clip-rule="evenodd" d="M20 19.9999L39.2512 -0.724854L39.88 -0.126454L20 19.9999Z" fill="#A0BFFF"/>
<path fill-rule="evenodd" clip-rule="evenodd" d="M20 19.9998L39.7536 -0.246582L40.368 0.367818L20 19.9998Z" fill="#9FBEFF"/>
<path fill-rule="evenodd" clip-rule="evenodd" d="M20 19.9999L40.2448 0.246338L40.8432 0.873538L20 19.9999Z" fill="#9EBDFF"/>
<path fill-rule="evenodd" clip-rule="evenodd" d="M20 20L40.7248 0.748779L41.3072 1.39198L20 20Z" fill="#9DBDFF"/>
<path fill-rule="evenodd" clip-rule="evenodd" d="M20 19.9998L41.1904 1.26221L41.7568 1.91981L20 19.9998Z" fill="#9CBCFF"/>
<path fill-rule="evenodd" clip-rule="evenodd" d="M20 20L41.6432 1.78882L42.1936 2.45922L20 20Z" fill="#9BBBFF"/>
<path fill-rule="evenodd" clip-rule="evenodd" d="M20 19.9999L42.0848 2.32471L42.6176 3.00951L20 19.9999Z" fill="#9ABAFF"/>
<path fill-rule="evenodd" clip-rule="evenodd" d="M20 19.9998L42.512 2.87183L43.0288 3.56943L20 19.9998Z" fill="#99BAFF"/>
<path fill-rule="evenodd" clip-rule="evenodd" d="M20 20L42.9248 3.43042L43.424 4.13922L20 20Z" fill="#98B9FF"/>
<path fill-rule="evenodd" clip-rule="evenodd" d="M20 20L43.3248 3.99683L43.8064 4.71843L20 20Z" fill="#97B8FF"/>
<path fill-rule="evenodd" clip-rule="evenodd" d="M20 19.9998L43.7104 4.57422L44.1744 5.30862L20 19.9998Z" fill="#96B8FF"/>
<path fill-rule="evenodd" clip-rule="evenodd" d="M20 20L44.0816 5.16162L44.528 5.90562L20 20Z" fill="#95B7FF"/>
<path fill-rule="evenodd" clip-rule="evenodd" d="M20 20L44.4384 5.75684L44.8656 6.51204L20 20Z" fill="#94B6FF"/>
<path fill-rule="evenodd" clip-rule="evenodd" d="M20 20L44.7808 6.36157L45.1888 7.12637L20 20Z" fill="#93B6FF"/>
<path fill-rule="evenodd" clip-rule="evenodd" d="M20 19.9999L45.1072 6.97266L45.4976 7.74866L20 19.9999Z" fill="#92B5FF"/>
<path fill-rule="evenodd" clip-rule="evenodd" d="M20 19.9999L45.4208 7.59351L45.7904 8.37751L20 19.9999Z" fill="#91B4FF"/>
<path fill-rule="evenodd" clip-rule="evenodd" d="M20 19.9999L45.7168 8.2207L46.0688 9.0143L20 19.9999Z" fill="#90B4FF"/>
<path fill-rule="evenodd" clip-rule="evenodd" d="M20 19.9998L45.9984 8.85425L46.3296 9.65745L20 19.9998Z" fill="#8FB3FF"/>
<path fill-rule="evenodd" clip-rule="evenodd" d="M20 19.9998L46.264 9.49585L46.576 10.307L20 19.9998Z" fill="#8EB2FF"/>
<path fill-rule="evenodd" clip-rule="evenodd" d="M20 19.9998L46.5136 10.1438L46.8064 10.9614L20 19.9998Z" fill="#8DB2FF"/>
<path fill-rule="evenodd" clip-rule="evenodd" d="M20 19.9999L46.7472 10.7983L47.0192 11.6223L20 19.9999Z" fill="#8CB1FF"/>
<path fill-rule="evenodd" clip-rule="evenodd" d="M20 19.9999L46.9648 11.4575L47.2176 12.2879L20 19.9999Z" fill="#8BB0FF"/>
<path fill-rule="evenodd" clip-rule="evenodd" d="M20 20L47.1664 12.1216L47.3984 12.9584L20 20Z" fill="#8AB0FF"/>
<path fill-rule="evenodd" clip-rule="evenodd" d="M20 19.9999L47.352 12.7903L47.5632 13.6319L20 19.9999Z" fill="#89AFFF"/>
<path fill-rule="evenodd" clip-rule="evenodd" d="M20 19.9999L47.5216 13.4639L47.7104 14.3103L20 19.9999Z" fill="#88AEFF"/>
<path fill-rule="evenodd" clip-rule="evenodd" d="M20 19.9999L47.672 14.1423L47.8416 14.9919L20 19.9999Z" fill="#87AEFF"/>
<path fill-rule="evenodd" clip-rule="evenodd" d="M20 19.9999L47.808 14.8223L47.9568 15.6767L20 19.9999Z" fill="#86ADFF"/>
<path fill-rule="evenodd" clip-rule="evenodd" d="M20 20L47.9264 15.5056L48.0544 16.3648L20 20Z" fill="#85ACFF"/>
<path fill-rule="evenodd" clip-rule="evenodd" d="M20 20L48.0288 16.1936L48.1344 17.0544L20 20Z" fill="#84ACFF"/>
<path fill-rule="evenodd" clip-rule="evenodd" d="M20 20L48.1136 16.8816L48.1984 17.7456L20 20Z" fill="#83ABFF"/>
<path fill-rule="evenodd" clip-rule="evenodd" d="M20 20L48.1824 17.5728L48.2464 18.4384L20 20Z" fill="#82AAFF"/>
<path fill-rule="evenodd" clip-rule="evenodd" d="M20 20L48.2336 18.2656L48.2752 19.1328L20 20Z" fill="#81AAFF"/>
<path fill-rule="evenodd" clip-rule="evenodd" d="M20 19.9999L48.2672 18.9583L48.288 19.8255L20 19.9999Z" fill="#80A9FF"/>
<path fill-rule="evenodd" clip-rule="evenodd" d="M20 20L48.2832 19.6528V20.52L20 20Z" fill="#7FA8FF"/>
<path fill-rule="evenodd" clip-rule="evenodd" d="M20 20L48.2832 20.3472L48.2624 21.2144L20 20Z" fill="#7EA7FF"/>
<path fill-rule="evenodd" clip-rule="evenodd" d="M20 20L48.2672 21.0416L48.224 21.9072L20 20Z" fill="#7DA7FF"/>
<path fill-rule="evenodd" clip-rule="evenodd" d="M20 20L48.2336 21.7344L48.1696 22.6L20 20Z" fill="#7CA6FF"/>
<path fill-rule="evenodd" clip-rule="evenodd" d="M20 20L48.1824 22.4272L48.0976 23.2912L20 20Z" fill="#7BA5FF"/>
<path fill-rule="evenodd" clip-rule="evenodd" d="M20 20L48.1136 23.1168L48.008 23.9792L20 20Z" fill="#7AA5FF"/>
<path fill-rule="evenodd" clip-rule="evenodd" d="M20 20L48.0288 23.8064L47.9008 24.6656L20 20Z" fill="#79A4FF"/>
<path fill-rule="evenodd" clip-rule="evenodd" d="M20 20L47.9264 24.4928L47.7792 25.3488L20 20Z" fill="#78A3FF"/>
<path fill-rule="evenodd" clip-rule="evenodd" d="M20 20L47.808 25.1776L47.6384 26.0288L20 20Z" fill="#77A3FF"/>
<path fill-rule="evenodd" clip-rule="evenodd" d="M20 20L47.672 25.8576L47.4832 26.7056L20 20Z" fill="#76A2FF"/>
<path fill-rule="evenodd" clip-rule="evenodd" d="M20 20L47.5216 26.536L47.3104 27.3776L20 20Z" fill="#75A1FF"/>
<path fill-rule="evenodd" clip-rule="evenodd" d="M20 20L47.352 27.2096L47.1216 28.0448L20 20Z" fill="#74A1FF"/>
<path fill-rule="evenodd" clip-rule="evenodd" d="M20 20L47.1664 27.8784L46.9152 28.7088L20 20Z" fill="#73A0FF"/>
<path fill-rule="evenodd" clip-rule="evenodd" d="M20 20L46.9648 28.5424L46.6928 29.3664L20 20Z" fill="#729FFF"/>
<path fill-rule="evenodd" clip-rule="evenodd" d="M20 20L46.7472 29.2016L46.456 30.0192L20 20Z" fill="#719FFF"/>
<path fill-rule="evenodd" clip-rule="evenodd" d="M20 20L46.5136 29.856L46.2016 30.6656L20 20Z" fill="#709EFF"/>
<path fill-rule="evenodd" clip-rule="evenodd" d="M20 20L46.264 30.5024L45.9312 31.3056L20 20Z" fill="#6F9DFF"/>
<path fill-rule="evenodd" clip-rule="evenodd" d="M20 20L45.9984 31.144L45.6464 31.9376L20 20Z" fill="#6E9DFF"/>
<path fill-rule="evenodd" clip-rule="evenodd" d="M20 20L45.7168 31.7792L45.3456 32.5632L20 20Z" fill="#6D9CFF"/>
<path fill-rule="evenodd" clip-rule="evenodd" d="M20 20L45.4208 32.4064L45.0304 33.1824L20 20Z" fill="#6C9BFF"/>
<path fill-rule="evenodd" clip-rule="evenodd" d="M20 20L45.1072 33.0272L44.6992 33.792L20 20Z" fill="#6B9BFF"/>
<path fill-rule="evenodd" clip-rule="evenodd" d="M20 20L44.7808 33.6384L44.3536 34.3952L20 20Z" fill="#6A9AFF"/>
<path fill-rule="evenodd" clip-rule="evenodd" d="M20 20L44.4384 34.2432L43.992 34.9872L20 20Z" fill="#6999FF"/>
<path fill-rule="evenodd" clip-rule="evenodd" d="M20 20L44.0816 34.8384L43.6176 35.5712L20 20Z" fill="#6899FF"/>
<path fill-rule="evenodd" clip-rule="evenodd" d="M20 20L43.7104 35.4256L43.2272 36.1472L20 20Z" fill="#6798FF"/>
<path fill-rule="evenodd" clip-rule="evenodd" d="M20 20L43.3248 36.0032L42.8256 36.712L20 20Z" fill="#6697FF"/>
<path fill-rule="evenodd" clip-rule="evenodd" d="M20 20L42.9248 36.5696L42.408 37.2672L20 20Z" fill="#6597FF"/>
<path fill-rule="evenodd" clip-rule="evenodd" d="M20 20L42.512 37.128L41.9776 37.8112L20 20Z" fill="#6496FF"/>
<path fill-rule="evenodd" clip-rule="evenodd" d="M20 20L42.0848 37.6752L41.5344 38.3456L20 20Z" fill="#6395FF"/>
<path fill-rule="evenodd" clip-rule="evenodd" d="M20 20L41.6432 38.2112L41.0768 38.8688L20 20Z" fill="#6294FF"/>
<path fill-rule="evenodd" clip-rule="evenodd" d="M20 20L41.1904 38.7376L40.608 39.3808L20 20Z" fill="#6194FF"/>
<path fill-rule="evenodd" clip-rule="evenodd" d="M20 20L40.7248 39.2512L40.1264 39.88L20 20Z" fill="#6093FF"/>
<path fill-rule="evenodd" clip-rule="evenodd" d="M20 20L40.2448 39.7536L39.632 40.368L20 20Z" fill="#5F92FF"/>
<path fill-rule="evenodd" clip-rule="evenodd" d="M20 20L39.7536 40.2448L39.1264 40.8432L20 20Z" fill="#5E92FF"/>
<path fill-rule="evenodd" clip-rule="evenodd" d="M20 20L39.2512 40.7248L38.608 41.3072L20 20Z" fill="#5D91FF"/>
<path fill-rule="evenodd" clip-rule="evenodd" d="M20 20L38.7376 41.1904L38.08 41.7568L20 20Z" fill="#5C90FF"/>
<path fill-rule="evenodd" clip-rule="evenodd" d="M20 20L38.2112 41.6432L37.5408 42.1936L20 20Z" fill="#5B90FF"/>
<path fill-rule="evenodd" clip-rule="evenodd" d="M20 20L37.6752 42.0848L36.9904 42.6176L20 20Z" fill="#5A8FFF"/>
<path fill-rule="evenodd" clip-rule="evenodd" d="M20 20L37.128 42.512L36.4304 43.0288L20 20Z" fill="#598EFF"/>
<path fill-rule="evenodd" clip-rule="evenodd" d="M20 20L36.5696 42.9248L35.8608 43.424L20 20Z" fill="#588EFF"/>
<path fill-rule="evenodd" clip-rule="evenodd" d="M20 20L36.0032 43.3248L35.28 43.8064L20 20Z" fill="#578DFF"/>
<path fill-rule="evenodd" clip-rule="evenodd" d="M20 20L35.4256 43.7104L34.6912 44.1744L20 20Z" fill="#568CFF"/>
<path fill-rule="evenodd" clip-rule="evenodd" d="M20 20L34.8384 44.0816L34.0944 44.528L20 20Z" fill="#558CFF"/>
<path fill-rule="evenodd" clip-rule="evenodd" d="M20 20L34.2432 44.4384L33.488 44.8656L20 20Z" fill="#548BFF"/>
<path fill-rule="evenodd" clip-rule="evenodd" d="M20 20L33.6384 44.7808L32.8736 45.1888L20 20Z" fill="#538AFF"/>
<path fill-rule="evenodd" clip-rule="evenodd" d="M20 20L33.0272 45.1072L32.2512 45.4976L20 20Z" fill="#528AFF"/>
<path fill-rule="evenodd" clip-rule="evenodd" d="M20 20L32.4064 45.4208L31.6224 45.7904L20 20Z" fill="#5189FF"/>
<path fill-rule="evenodd" clip-rule="evenodd" d="M20 20L31.7792 45.7168L30.9856 46.0688L20 20Z" fill="#5088FF"/>
<path fill-rule="evenodd" clip-rule="evenodd" d="M20 20L31.144 45.9984L30.3424 46.3296L20 20Z" fill="#4F88FF"/>
<path fill-rule="evenodd" clip-rule="evenodd" d="M20 20L30.5024 46.264L29.6928 46.576L20 20Z" fill="#4E87FF"/>
<path fill-rule="evenodd" clip-rule="evenodd" d="M20 20L29.856 46.5136L29.0384 46.8064L20 20Z" fill="#4D86FF"/>
<path fill-rule="evenodd" clip-rule="evenodd" d="M20 20L29.2016 46.7472L28.3776 47.0192L20 20Z" fill="#4C86FF"/>
<path fill-rule="evenodd" clip-rule="evenodd" d="M20 20L28.5424 46.9648L27.712 47.2176L20 20Z" fill="#4B85FF"/>
<path fill-rule="evenodd" clip-rule="evenodd" d="M20 20L27.8784 47.1664L27.0416 47.3984L20 20Z" fill="#4A84FF"/>
<path fill-rule="evenodd" clip-rule="evenodd" d="M20 20L27.2096 47.352L26.3664 47.5632L20 20Z" fill="#4984FF"/>
<path fill-rule="evenodd" clip-rule="evenodd" d="M20 20L26.536 47.5216L25.6896 47.7104L20 20Z" fill="#4883FF"/>
<path fill-rule="evenodd" clip-rule="evenodd" d="M20 20L25.8576 47.672L25.0064 47.8416L20 20Z" fill="#4782FF"/>
<path fill-rule="evenodd" clip-rule="evenodd" d="M20 20L25.1776 47.808L24.3232 47.9568L20 20Z" fill="#4681FF"/>
<path fill-rule="evenodd" clip-rule="evenodd" d="M20 20L24.4928 47.9264L23.6352 48.0544L20 20Z" fill="#4581FF"/>
<path fill-rule="evenodd" clip-rule="evenodd" d="M20 20L23.8064 48.0288L22.9456 48.1344L20 20Z" fill="#4480FF"/>
<path fill-rule="evenodd" clip-rule="evenodd" d="M20 20L23.1168 48.1136L22.2544 48.1984L20 20Z" fill="#437FFF"/>
<path fill-rule="evenodd" clip-rule="evenodd" d="M20 20L22.4272 48.1824L21.5616 48.2464L20 20Z" fill="#427FFF"/>
<path fill-rule="evenodd" clip-rule="evenodd" d="M20 20L21.7344 48.2336L20.8672 48.2752L20 20Z" fill="#417EFF"/>
<path fill-rule="evenodd" clip-rule="evenodd" d="M20 20L21.0416 48.2672L20.1728 48.288L20 20Z" fill="#407DFF"/>
<path fill-rule="evenodd" clip-rule="evenodd" d="M20.0001 20L20.3473 48.2832H19.4785L20.0001 20Z" fill="#3F7DFF"/>
<path fill-rule="evenodd" clip-rule="evenodd" d="M19.9996 20L19.6524 48.2832L18.7852 48.2624L19.9996 20Z" fill="#3E7CFF"/>
<path fill-rule="evenodd" clip-rule="evenodd" d="M19.9996 20L18.958 48.2672L18.0908 48.224L19.9996 20Z" fill="#3D7BFF"/>
<path fill-rule="evenodd" clip-rule="evenodd" d="M20.0004 20L18.266 48.2336L17.4004 48.1696L20.0004 20Z" fill="#3C7BFF"/>
<path fill-rule="evenodd" clip-rule="evenodd" d="M20.0002 20L17.573 48.1824L16.709 48.0976L20.0002 20Z" fill="#3B7AFF"/>
<path fill-rule="evenodd" clip-rule="evenodd" d="M19.9997 20L16.8813 48.1136L16.0205 48.008L19.9997 20Z" fill="#3A79FF"/>
<path fill-rule="evenodd" clip-rule="evenodd" d="M19.9996 20L16.1932 48.0288L15.334 47.9008L19.9996 20Z" fill="#3979FF"/>
<path fill-rule="evenodd" clip-rule="evenodd" d="M20.0002 20L15.5058 47.9264L14.6514 47.7792L20.0002 20Z" fill="#3878FF"/>
<path fill-rule="evenodd" clip-rule="evenodd" d="M19.9995 20L14.8219 47.808L13.9707 47.6384L19.9995 20Z" fill="#3777FF"/>
<path fill-rule="evenodd" clip-rule="evenodd" d="M19.9995 20L14.1419 47.672L13.2939 47.4832L19.9995 20Z" fill="#3677FF"/>
<path fill-rule="evenodd" clip-rule="evenodd" d="M19.9997 20L13.4637 47.5216L12.6221 47.3104L19.9997 20Z" fill="#3576FF"/>
<path fill-rule="evenodd" clip-rule="evenodd" d="M19.9995 20L12.7899 47.352L11.9531 47.1216L19.9995 20Z" fill="#3475FF"/>
<path fill-rule="evenodd" clip-rule="evenodd" d="M19.9998 20L12.1214 47.1664L11.291 46.9152L19.9998 20Z" fill="#3375FF"/>
<path fill-rule="evenodd" clip-rule="evenodd" d="M20.0002 20L11.4578 46.9648L10.6338 46.6928L20.0002 20Z" fill="#3274FF"/>
<path fill-rule="evenodd" clip-rule="evenodd" d="M19.9997 20L10.7981 46.7472L9.98047 46.456L19.9997 20Z" fill="#3173FF"/>
<path fill-rule="evenodd" clip-rule="evenodd" d="M19.9996 20L10.1436 46.5136L9.33398 46.2016L19.9996 20Z" fill="#3073FF"/>
<path fill-rule="evenodd" clip-rule="evenodd" d="M19.9999 20L9.49594 46.264L8.69434 45.9312L19.9999 20Z" fill="#2F72FF"/>
<path fill-rule="evenodd" clip-rule="evenodd" d="M20.0001 20L8.8545 45.9984L8.0625 45.6464L20.0001 20Z" fill="#2E71FF"/>
<path fill-rule="evenodd" clip-rule="evenodd" d="M19.9997 20L8.22052 45.7168L7.43652 45.3456L19.9997 20Z" fill="#2D71FF"/>
<path fill-rule="evenodd" clip-rule="evenodd" d="M19.9998 20L7.59338 45.4208L6.81738 45.0304L19.9998 20Z" fill="#2C70FF"/>
<path fill-rule="evenodd" clip-rule="evenodd" d="M20 20L6.97281 45.1072L6.20801 44.6992L20 20Z" fill="#2B6FFF"/>
<path fill-rule="evenodd" clip-rule="evenodd" d="M19.9997 20L6.36129 44.7808L5.60449 44.3536L19.9997 20Z" fill="#2A6EFF"/>
<path fill-rule="evenodd" clip-rule="evenodd" d="M19.9999 20L5.7567 44.4384L5.0127 43.992L19.9999 20Z" fill="#296EFF"/>
<path fill-rule="evenodd" clip-rule="evenodd" d="M19.9996 20L5.16116 44.0816L4.42676 43.6176L19.9996 20Z" fill="#286DFF"/>
<path fill-rule="evenodd" clip-rule="evenodd" d="M19.9997 20L4.57414 43.7104L3.85254 43.2272L19.9997 20Z" fill="#276CFF"/>
<path fill-rule="evenodd" clip-rule="evenodd" d="M20.0001 20L3.99689 43.3248L3.28809 42.8256L20.0001 20Z" fill="#266CFF"/>
<path fill-rule="evenodd" clip-rule="evenodd" d="M19.9996 20L3.43002 42.9248L2.73242 42.408L19.9996 20Z" fill="#256BFF"/>
<path fill-rule="evenodd" clip-rule="evenodd" d="M20.0003 20L2.8723 42.512L2.1875 41.9776L20.0003 20Z" fill="#246AFF"/>
<path fill-rule="evenodd" clip-rule="evenodd" d="M19.9999 20L2.3247 42.0848L1.6543 41.5344L19.9999 20Z" fill="#236AFF"/>
<path fill-rule="evenodd" clip-rule="evenodd" d="M19.9997 20L1.78846 41.6432L1.13086 41.0768L19.9997 20Z" fill="#2269FF"/>
<path fill-rule="evenodd" clip-rule="evenodd" d="M19.9999 20L1.26234 41.1904L0.619141 40.608L19.9999 20Z" fill="#2168FF"/>
<path fill-rule="evenodd" clip-rule="evenodd" d="M20.0001 20L0.748917 40.7248L0.120117 40.1264L20.0001 20Z" fill="#2068FF"/>
<path fill-rule="evenodd" clip-rule="evenodd" d="M19.9998 20L0.246236 40.2448L-0.368164 39.632L19.9998 20Z" fill="#1F67FF"/>
<path fill-rule="evenodd" clip-rule="evenodd" d="M19.9994 20L-0.24695 39.7536L-0.84375 39.1264L19.9994 20Z" fill="#1E66FF"/>
<path fill-rule="evenodd" clip-rule="evenodd" d="M19.9996 20L-0.725217 39.2512L-1.30762 38.608L19.9996 20Z" fill="#1D66FF"/>
<path fill-rule="evenodd" clip-rule="evenodd" d="M20 20L-1.19044 38.7376L-1.75684 38.08L20 20Z" fill="#1C65FF"/>
<path fill-rule="evenodd" clip-rule="evenodd" d="M20.0002 20L-1.64296 38.2112L-2.19336 37.5408L20.0002 20Z" fill="#1B64FF"/>
<path fill-rule="evenodd" clip-rule="evenodd" d="M19.9994 20L-2.08536 37.6752L-2.61816 36.9904L19.9994 20Z" fill="#1A64FF"/>
<path fill-rule="evenodd" clip-rule="evenodd" d="M19.9995 20L-2.5125 37.128L-3.0293 36.4304L19.9995 20Z" fill="#1963FF"/>
<path fill-rule="evenodd" clip-rule="evenodd" d="M20.0002 20L-2.92463 36.5696L-3.42383 35.8608L20.0002 20Z" fill="#1862FF"/>
<path fill-rule="evenodd" clip-rule="evenodd" d="M19.9998 20L-3.32504 36.0032L-3.80664 35.28L19.9998 20Z" fill="#1762FF"/>
<path fill-rule="evenodd" clip-rule="evenodd" d="M19.9996 20L-3.7108 35.4256L-4.1748 34.6912L19.9996 20Z" fill="#1661FF"/>
<path fill-rule="evenodd" clip-rule="evenodd" d="M19.9997 20L-4.08192 34.8384L-4.52832 34.0944L19.9997 20Z" fill="#1560FF"/>
<path fill-rule="evenodd" clip-rule="evenodd" d="M20.0004 20L-4.43803 34.2432L-4.86523 33.488L20.0004 20Z" fill="#1460FF"/>
<path fill-rule="evenodd" clip-rule="evenodd" d="M20 20L-4.78083 33.6384L-5.19043 32.8736L20 20Z" fill="#135FFF"/>
<path fill-rule="evenodd" clip-rule="evenodd" d="M19.9996 20L-5.10925 33.0272L-5.49805 32.2512L19.9996 20Z" fill="#125EFF"/>
<path fill-rule="evenodd" clip-rule="evenodd" d="M20.0004 20L-5.42044 32.4064L-5.79004 31.6224L20.0004 20Z" fill="#115EFF"/>
<path fill-rule="evenodd" clip-rule="evenodd" d="M19.9995 20L-5.71734 31.7792L-6.06934 30.9856L19.9995 20Z" fill="#105DFF"/>
<path fill-rule="evenodd" clip-rule="evenodd" d="M20.0001 20L-5.99825 31.144L-6.33105 30.3424L20.0001 20Z" fill="#0F5CFF"/>
<path fill-rule="evenodd" clip-rule="evenodd" d="M19.9998 20L-6.26417 30.5024L-6.57617 29.6928L19.9998 20Z" fill="#0E5BFF"/>
<path fill-rule="evenodd" clip-rule="evenodd" d="M19.9998 20L-6.51384 29.856L-6.80664 29.0384L19.9998 20Z" fill="#0D5BFF"/>
<path fill-rule="evenodd" clip-rule="evenodd" d="M19.9997 20L-6.74913 29.2016L-7.01953 28.3776L19.9997 20Z" fill="#0C5AFF"/>
<path fill-rule="evenodd" clip-rule="evenodd" d="M19.9998 20L-6.96657 28.5424L-7.21777 27.712L19.9998 20Z" fill="#0B59FF"/>
<path fill-rule="evenodd" clip-rule="evenodd" d="M20 20L-7.16804 27.8784L-7.39844 27.0416L20 20Z" fill="#0A59FF"/>
<path fill-rule="evenodd" clip-rule="evenodd" d="M19.9997 20L-7.35228 27.2096L-7.56348 26.3664L19.9997 20Z" fill="#0958FF"/>
<path fill-rule="evenodd" clip-rule="evenodd" d="M19.9995 20L-7.52214 26.536L-7.71094 25.6896L19.9995 20Z" fill="#0857FF"/>
<path fill-rule="evenodd" clip-rule="evenodd" d="M19.9998 20L-7.6738 25.8576L-7.8418 25.0064L19.9998 20Z" fill="#0757FF"/>
<path fill-rule="evenodd" clip-rule="evenodd" d="M19.9998 20L-7.80823 25.1776L-7.95703 24.3232L19.9998 20Z" fill="#0656FF"/>
<path fill-rule="evenodd" clip-rule="evenodd" d="M19.9997 20L-7.92669 24.4928L-8.05469 23.6352L19.9997 20Z" fill="#0555FF"/>
<path fill-rule="evenodd" clip-rule="evenodd" d="M19.9996 20L-8.02917 23.8064L-8.13477 22.9456L19.9996 20Z" fill="#0455FF"/>
<path fill-rule="evenodd" clip-rule="evenodd" d="M20.0002 20L-8.11344 23.1168L-8.19824 22.2544L20.0002 20Z" fill="#0354FF"/>
<path fill-rule="evenodd" clip-rule="evenodd" d="M20.0003 20L-8.18209 22.4272L-8.24609 21.5616L20.0003 20Z" fill="#0253FF"/>
<path fill-rule="evenodd" clip-rule="evenodd" d="M19.9998 20L-8.23379 21.7344L-8.27539 20.8672L19.9998 20Z" fill="#0153FF"/>
<path fill-rule="evenodd" clip-rule="evenodd" d="M19.9999 20L-8.26729 21.0416L-8.28809 20.1728L19.9999 20Z" fill="#0052FF"/>
<path fill-rule="evenodd" clip-rule="evenodd" d="M19.9996 20L-8.28516 20.3472V19.6528L19.9996 20Z" fill="white"/>
</g>
</g>
<defs>
<clipPath id="clip0_43_2642">
<rect width="40" height="40" fill="white"/>
</clipPath>
</defs>
</svg>
