<svg width="24" height="14" viewBox="0 0 24 14" fill="none" xmlns="http://www.w3.org/2000/svg">
<path d="M1.5 3C2.32846 3 3 2.32843 3 1.5C3 0.671574 2.32846 0 1.5 0C0.671539 0 0 0.671574 0 1.5C0 2.32843 0.671539 3 1.5 3Z" fill="white"/>
<path d="M7.5 0C6.67154 0 6 0.671574 6 1.5C6 2.32843 6.67154 3 7.5 3H22.5C23.3285 3 24 2.32843 24 1.5C24 0.671574 23.3285 0 22.5 0H7.5Z" fill="white"/>
<path d="M7.5 5.5C6.67154 5.5 6 6.17157 6 7C6 7.82843 6.67154 8.5 7.5 8.5H22.5C23.3285 8.5 24 7.82843 24 7C24 6.17157 23.3285 5.5 22.5 5.5H7.5Z" fill="white"/>
<path d="M6 12.5C6 11.6716 6.67154 11 7.5 11H22.5C23.3285 11 24 11.6716 24 12.5C24 13.3284 23.3285 14 22.5 14H7.5C6.67154 14 6 13.3284 6 12.5Z" fill="white"/>
<path d="M3 7C3 7.82843 2.32846 8.5 1.5 8.5C0.671539 8.5 0 7.82843 0 7C0 6.17157 0.671539 5.5 1.5 5.5C2.32846 5.5 3 6.17157 3 7Z" fill="white"/>
<path d="M1.5 14C2.32846 14 3 13.3284 3 12.5C3 11.6716 2.32846 11 1.5 11C0.671539 11 0 11.6716 0 12.5C0 13.3284 0.671539 14 1.5 14Z" fill="white"/>
</svg>
