<svg width="36" height="32" viewBox="0 0 36 32" fill="none" xmlns="http://www.w3.org/2000/svg">
<path d="M18.1863 0H24.9371C25.8581 0 26.6822 0.515867 27.0037 1.29374L32.9292 15.6299C32.9749 15.7405 32.9754 15.8622 32.9307 15.9731L32.8975 16.0555L32.8972 16.0563L26.9966 30.6912C26.6798 31.4769 25.8514 32 24.9239 32H18.1741C17.7945 32 17.5285 31.6623 17.6536 31.3393L23.7379 15.6299L17.6685 0.667513C17.537 0.343309 17.8033 0 18.1863 0Z" fill="#D631B9"/>
<path d="M0.563946 0H7.31478C8.23578 0 9.0598 0.515867 9.38131 1.29374L15.3068 15.6299C15.3525 15.7405 15.3531 15.8622 15.3083 15.9731L15.2751 16.0555L15.2748 16.0563L9.37425 30.6912C9.05747 31.4769 8.22909 32 7.30158 32H0.551767C0.172188 32 -0.0938447 31.6623 0.0312524 31.3393L6.11551 15.6299L0.0461508 0.667513C-0.0853596 0.343309 0.180948 0 0.563946 0Z" fill="#D631B9"/>
<path d="M22.4551 13H13V20H22.4551L24 16.4L22.4551 13Z" fill="#D631B9"/>
<path d="M21.1863 0H27.9371C28.8581 0 29.6822 0.515867 30.0037 1.29374L35.9292 15.6299C35.9749 15.7405 35.9754 15.8622 35.9307 15.9731L35.8975 16.0555L35.8972 16.0563L29.9966 30.6912C29.6798 31.4769 28.8514 32 27.9239 32H21.1741C20.7945 32 20.5285 31.6623 20.6536 31.3393L26.7379 15.6299L20.6685 0.667513C20.537 0.343309 20.8033 0 21.1863 0Z" fill="white"/>
<path d="M3.56395 0H10.3148C11.2358 0 12.0598 0.515867 12.3813 1.29374L18.3068 15.6299C18.3525 15.7405 18.3531 15.8622 18.3083 15.9731L18.2751 16.0555L18.2748 16.0563L12.3742 30.6912C12.0575 31.4769 11.2291 32 10.3016 32H3.55177C3.17219 32 2.90616 31.6623 3.03125 31.3393L9.11551 15.6299L3.04615 0.667513C2.91464 0.343309 3.18095 0 3.56395 0Z" fill="white"/>
<path d="M26.3146 13H16V20H26.3146L28 16.4L26.3146 13Z" fill="white"/>
</svg>
