<svg width="40" height="40" viewBox="0 0 40 40" fill="none" xmlns="http://www.w3.org/2000/svg">
<g clip-path="url(#clip0_31_2334)">
<path d="M15.7895 35.7894C22.1853 35.7894 27.3684 30.6063 27.3684 24.2105C27.3684 17.8147 22.1853 12.6315 15.7895 12.6315C9.39368 12.6315 4.21053 17.8147 4.21053 24.2105C4.21053 30.6063 9.39368 35.7894 15.7895 35.7894ZM15.7895 40C7.06947 40 0 32.9305 0 24.2105C0 15.4905 7.06947 8.42102 15.7895 8.42102C24.5095 8.42102 31.5789 15.4905 31.5789 24.2105C31.5789 32.9305 24.5095 40 15.7895 40Z" fill="#FBCC5C"/>
<path d="M24.2104 27.3684C30.6062 27.3684 35.7893 22.1853 35.7893 15.7895C35.7893 9.39368 30.6062 4.21053 24.2104 4.21053C17.8146 4.21053 12.6314 9.39368 12.6314 15.7895C12.6314 22.1853 17.8146 27.3684 24.2104 27.3684ZM24.2104 31.5789C15.4904 31.5789 8.4209 24.5095 8.4209 15.7895C8.4209 7.06947 15.4904 0 24.2104 0C32.9304 0 39.9998 7.06947 39.9998 15.7895C39.9998 24.5095 32.9304 31.5789 24.2104 31.5789Z" fill="#35D07F"/>
<path d="M24.7325 31.5789C25.8272 30.2526 26.6104 28.6989 27.0272 27.0273C28.6946 26.6105 30.2483 25.8273 31.5788 24.7326C31.5198 26.6652 31.103 28.5684 30.3493 30.3537C28.5683 31.1031 26.6651 31.52 24.7325 31.5789ZM12.9725 12.9726C11.3051 13.3894 9.75142 14.1726 8.4209 15.2673C8.47985 13.3347 8.89669 11.4315 9.65037 9.65049C11.4314 8.90102 13.3388 8.48418 15.2672 8.42102C14.1725 9.74734 13.3893 11.301 12.9725 12.9726Z" fill="#5EA33B"/>
</g>
<defs>
<clipPath id="clip0_31_2334">
<rect width="40" height="40" fill="white"/>
</clipPath>
</defs>
</svg>
