<svg width="161" height="32" viewBox="0 0 161 32" fill="none" xmlns="http://www.w3.org/2000/svg">
<path d="M6.81093 21.9298C4.81781 21.9298 3.18108 21.2341 1.90073 19.8428C0.633575 18.4381 0 16.6589 0 14.505C0 12.3378 0.620376 10.5452 1.86113 9.12709C3.10188 7.70903 4.74521 7 6.79113 7C8.48067 7 9.83361 7.45485 10.85 8.36455C11.8795 9.26087 12.4735 10.4181 12.6319 11.8361H9.78082C9.64882 11.1003 9.31883 10.5184 8.79086 10.0903C8.27608 9.66221 7.6095 9.44816 6.79113 9.44816C5.53718 9.44816 4.58022 9.91639 3.92025 10.8528C3.26027 11.7893 2.93028 13.0067 2.93028 14.505C2.93028 15.99 3.28007 17.2007 3.97964 18.1371C4.69242 19.0736 5.63618 19.5418 6.81093 19.5418C7.6425 19.5418 8.33547 19.3144 8.88985 18.8595C9.44423 18.3913 9.76762 17.7759 9.86001 17.0134H12.6715C12.5923 18.3645 12.0709 19.495 11.1074 20.4047C10.0382 21.4214 8.60606 21.9298 6.81093 21.9298Z" fill="white"/>
<path d="M22.6597 20.3846C21.6698 21.4147 20.396 21.9298 18.8385 21.9298C17.281 21.9298 16.0072 21.4147 15.0172 20.3846C14.0273 19.3411 13.5323 18.0435 13.5323 16.4916C13.5323 14.9398 14.0273 13.6488 15.0172 12.6187C16.0072 11.5753 17.281 11.0535 18.8385 11.0535C20.396 11.0535 21.6698 11.5753 22.6597 12.6187C23.6497 13.6488 24.1447 14.9398 24.1447 16.4916C24.1447 18.0435 23.6497 19.3411 22.6597 20.3846ZM18.8385 19.8428C19.6437 19.8428 20.2706 19.5418 20.7194 18.9398C21.1814 18.3244 21.4124 17.5084 21.4124 16.4916C21.4124 15.4749 21.1814 14.6589 20.7194 14.0435C20.2706 13.4281 19.6437 13.1204 18.8385 13.1204C18.0201 13.1204 17.3866 13.4281 16.9378 14.0435C16.489 14.6455 16.2646 15.4615 16.2646 16.4916C16.2646 17.5084 16.489 18.3244 16.9378 18.9398C17.3866 19.5418 18.0201 19.8428 18.8385 19.8428Z" fill="white"/>
<path d="M28.0297 11.3344V12.7391H28.0891C28.7886 11.6154 29.7918 11.0535 31.0985 11.0535C32.1413 11.0535 32.9861 11.4147 33.6328 12.1371C34.2796 12.8462 34.603 13.7692 34.603 14.9064V21.6288H31.9103V15.3077C31.9103 14.7458 31.7519 14.291 31.4351 13.9431C31.1315 13.5953 30.7026 13.4214 30.1482 13.4214C29.5542 13.4214 29.0592 13.6421 28.6632 14.0836C28.2805 14.5251 28.0891 15.0936 28.0891 15.7893V21.6288H25.3964V11.3344H28.0297Z" fill="white"/>
<path d="M38.896 11.3344V12.7391H38.9554C39.655 11.6154 40.6582 11.0535 41.9649 11.0535C43.0077 11.0535 43.8524 11.4147 44.4992 12.1371C45.146 12.8462 45.4694 13.7692 45.4694 14.9064V21.6288H42.7767V15.3077C42.7767 14.7458 42.6183 14.291 42.3015 13.9431C41.9979 13.5953 41.5689 13.4214 41.0146 13.4214C40.4206 13.4214 39.9256 13.6421 39.5296 14.0836C39.1468 14.5251 38.9554 15.0936 38.9554 15.7893V21.6288H36.2627V11.3344H38.896Z" fill="white"/>
<path d="M51.9007 21.9298C50.264 21.9298 48.977 21.4214 48.0399 20.4047C47.1027 19.3746 46.6341 18.0635 46.6341 16.4716C46.6341 14.9331 47.1027 13.6488 48.0399 12.6187C48.977 11.5753 50.1782 11.0535 51.6433 11.0535C53.2405 11.0535 54.4746 11.6154 55.3458 12.7391C56.217 13.8629 56.6525 15.3679 56.6525 17.2542H49.2872C49.3928 18.0702 49.6634 18.7057 50.099 19.1605C50.5346 19.602 51.1286 19.8227 51.8809 19.8227C52.8709 19.8227 53.5243 19.4013 53.841 18.5585H56.4941C56.2962 19.5217 55.7946 20.3244 54.9894 20.9666C54.1842 21.6087 53.1547 21.9298 51.9007 21.9298ZM51.6829 13.1605C50.3762 13.1605 49.5908 13.8963 49.3268 15.3679H53.841C53.8014 14.7124 53.5837 14.1839 53.1877 13.7826C52.7917 13.3679 52.2901 13.1605 51.6829 13.1605Z" fill="white"/>
<path d="M62.611 21.9298C61.0403 21.9298 59.7797 21.4147 58.8294 20.3846C57.879 19.3545 57.4038 18.0569 57.4038 16.4916C57.4038 14.9264 57.8658 13.6288 58.7898 12.5987C59.7269 11.5686 60.9545 11.0535 62.4724 11.0535C63.7528 11.0535 64.7955 11.3946 65.6007 12.0769C66.4059 12.7592 66.9008 13.6756 67.0856 14.8261H64.4523C64.3599 14.3579 64.1488 13.9766 63.8188 13.6823C63.4888 13.388 63.0796 13.2408 62.5912 13.2408C61.7992 13.2408 61.1921 13.5284 60.7697 14.1037C60.3473 14.6789 60.1361 15.4749 60.1361 16.4916C60.1361 17.495 60.3407 18.291 60.7499 18.8796C61.1591 19.4548 61.7597 19.7425 62.5516 19.7425C63.7264 19.7425 64.4062 19.1605 64.5909 17.9967H67.1846C67.0922 19.1338 66.6369 20.0769 65.8185 20.8261C65.0001 21.5619 63.931 21.9298 62.611 21.9298Z" fill="white"/>
<path d="M67.7652 13.1405V11.3344H69.1709V8.12375H71.8042V11.3344H73.5465V13.1405H71.8042V18.5987C71.8042 19.2809 72.1408 19.6221 72.814 19.6221L73.6059 19.602V21.6087C73.1967 21.6355 72.6358 21.6488 71.923 21.6488C71.1442 21.6488 70.4909 21.4615 69.9629 21.087C69.4349 20.699 69.1709 20.0635 69.1709 19.1806V13.1405H67.7652Z" fill="white"/>
<path d="M79.608 21.9298C77.9713 21.9298 76.6843 21.4214 75.7472 20.4047C74.81 19.3746 74.3414 18.0635 74.3414 16.4716C74.3414 14.9331 74.81 13.6488 75.7472 12.6187C76.6843 11.5753 77.8855 11.0535 79.3506 11.0535C80.9478 11.0535 82.1819 11.6154 83.0531 12.7391C83.9243 13.8629 84.3598 15.3679 84.3598 17.2542H76.9945C77.1001 18.0702 77.3707 18.7057 77.8063 19.1605C78.2419 19.602 78.8359 19.8227 79.5882 19.8227C80.5782 19.8227 81.2316 19.4013 81.5484 18.5585H84.2015C84.0035 19.5217 83.5019 20.3244 82.6967 20.9666C81.8915 21.6087 80.862 21.9298 79.608 21.9298ZM79.3902 13.1605C78.0835 13.1605 77.2981 13.8963 77.0341 15.3679H81.5484C81.5088 14.7124 81.291 14.1839 80.895 13.7826C80.499 13.3679 79.9974 13.1605 79.3902 13.1605Z" fill="white"/>
<path d="M89.4076 21.9298C88.1272 21.9298 87.0911 21.4415 86.2991 20.4649C85.5071 19.4749 85.1111 18.1505 85.1111 16.4916C85.1111 14.8863 85.5137 13.5819 86.3189 12.5786C87.1373 11.5619 88.18 11.0535 89.4472 11.0535C90.7143 11.0535 91.6713 11.5619 92.318 12.5786H92.3774V7.28094H95.0701V21.6288H92.4764V20.2843H92.4368C91.7769 21.3813 90.7671 21.9298 89.4076 21.9298ZM90.0015 19.6421C90.7935 19.6421 91.3941 19.3679 91.8033 18.8194C92.2257 18.2709 92.4368 17.515 92.4368 16.5518C92.4368 14.3579 91.6515 13.2609 90.0807 13.2609C89.3548 13.2609 88.8004 13.5552 88.4176 14.1438C88.0348 14.7324 87.8434 15.515 87.8434 16.4916C87.8434 17.495 88.0282 18.2709 88.3978 18.8194C88.7806 19.3679 89.3152 19.6421 90.0015 19.6421Z" fill="white"/>
<path d="M105.809 21.9298C104.436 21.9298 103.426 21.4013 102.779 20.3445H102.74V21.6288H100.146V7.28094H102.839V12.5786H102.898C103.545 11.5619 104.489 11.0535 105.73 11.0535C107.01 11.0535 108.059 11.5619 108.878 12.5786C109.696 13.5819 110.105 14.8863 110.105 16.4916C110.105 18.1505 109.709 19.4749 108.917 20.4649C108.125 21.4415 107.089 21.9298 105.809 21.9298ZM105.215 19.6421C105.901 19.6421 106.429 19.3679 106.799 18.8194C107.181 18.2709 107.373 17.495 107.373 16.4916C107.373 15.5017 107.175 14.7191 106.779 14.1438C106.396 13.5552 105.842 13.2609 105.116 13.2609C103.558 13.2609 102.779 14.3579 102.779 16.5518C102.779 17.5017 102.997 18.2575 103.433 18.8194C103.868 19.3679 104.462 19.6421 105.215 19.6421Z" fill="white"/>
<path d="M111.288 25V22.8528H112.239C113.242 22.8528 113.743 22.3846 113.743 21.4482C113.743 20.9933 113.486 20.0635 112.971 18.6589L110.239 11.3344H113.07L114.575 15.9699L115.228 18.2174H115.268C115.453 17.3478 115.651 16.5987 115.862 15.9699L117.287 11.3344H120L116.456 21.8896C116.06 23.0669 115.611 23.8763 115.11 24.3177C114.621 24.7726 113.875 25 112.872 25H111.288Z" fill="white"/>
<path d="M143.186 0H149.937C150.858 0 151.682 0.515867 152.004 1.29374L157.929 15.6299C157.975 15.7405 157.975 15.8622 157.931 15.9731L157.898 16.0555L157.897 16.0563L151.997 30.6912C151.68 31.4769 150.851 32 149.924 32H143.174C142.795 32 142.528 31.6623 142.654 31.3393L148.738 15.6299L142.668 0.667513C142.537 0.343309 142.803 0 143.186 0Z" fill="#D631B9"/>
<path d="M125.564 0H132.315C133.236 0 134.06 0.515867 134.381 1.29374L140.307 15.6299C140.353 15.7405 140.353 15.8622 140.308 15.9731L140.275 16.0555L140.275 16.0563L134.374 30.6912C134.057 31.4769 133.229 32 132.302 32H125.552C125.172 32 124.906 31.6623 125.031 31.3393L131.116 15.6299L125.046 0.667513C124.915 0.343309 125.181 0 125.564 0Z" fill="#D631B9"/>
<path d="M147.455 13H138V20H147.455L149 16.4L147.455 13Z" fill="#D631B9"/>
<path d="M146.186 0H152.937C153.858 0 154.682 0.515867 155.004 1.29374L160.929 15.6299C160.975 15.7405 160.975 15.8622 160.931 15.9731L160.898 16.0555L160.897 16.0563L154.997 30.6912C154.68 31.4769 153.851 32 152.924 32H146.174C145.795 32 145.528 31.6623 145.654 31.3393L151.738 15.6299L145.668 0.667513C145.537 0.343309 145.803 0 146.186 0Z" fill="white"/>
<path d="M128.564 0H135.315C136.236 0 137.06 0.515867 137.381 1.29374L143.307 15.6299C143.353 15.7405 143.353 15.8622 143.308 15.9731L143.275 16.0555L143.275 16.0563L137.374 30.6912C137.057 31.4769 136.229 32 135.302 32H128.552C128.172 32 127.906 31.6623 128.031 31.3393L134.116 15.6299L128.046 0.667513C127.915 0.343309 128.181 0 128.564 0Z" fill="white"/>
<path d="M151.315 13H141V20H151.315L153 16.4L151.315 13Z" fill="white"/>
</svg>
