<svg width="31" height="22" viewBox="0 0 31 22" fill="none" xmlns="http://www.w3.org/2000/svg">
<path d="M13.9523 18.3409C14.0716 18.3411 14.1896 18.3644 14.2997 18.4095C14.4098 18.4546 14.5098 18.5206 14.594 18.6038C14.6782 18.687 14.745 18.7857 14.7904 18.8942C14.8359 19.0028 14.8592 19.1192 14.8591 19.2366C14.8589 19.3541 14.8352 19.4703 14.7895 19.5788C14.7437 19.6872 14.6766 19.7857 14.5922 19.8687C14.5078 19.9516 14.4076 20.0174 14.2973 20.0622C14.1871 20.1069 14.069 20.1299 13.9497 20.1298C13.7089 20.1294 13.4781 20.0349 13.308 19.8669C13.138 19.6989 13.0426 19.4713 13.043 19.2341C13.0433 18.9969 13.1393 18.7695 13.3098 18.602C13.4804 18.4345 13.7115 18.3406 13.9523 18.3409ZM28.1919 12.8103C28.0726 12.8103 27.9546 12.787 27.8444 12.742C27.7343 12.697 27.6342 12.631 27.55 12.5479C27.4657 12.4648 27.3989 12.3662 27.3533 12.2576C27.3078 12.1491 27.2844 12.0327 27.2845 11.9153C27.2845 11.7978 27.3081 11.6815 27.3538 11.5731C27.3995 11.4646 27.4665 11.366 27.5509 11.283C27.6353 11.2 27.7354 11.1342 27.8456 11.0894C27.9558 11.0445 28.0739 11.0214 28.1932 11.0215C28.434 11.0217 28.6649 11.1161 28.8351 11.2839C29.0052 11.4518 29.1007 11.6793 29.1006 11.9166C29.1004 12.1538 29.0046 12.3812 28.8342 12.5488C28.6637 12.7164 28.4327 12.8105 28.1919 12.8103ZM28.1919 9.15126C27.4473 9.15194 26.7335 9.44356 26.207 9.96213C25.6805 10.4807 25.3844 11.1838 25.3837 11.9172C25.3837 12.2136 25.4341 12.5088 25.5323 12.7963L16.2567 17.6603C15.9995 17.2924 15.6553 16.9917 15.2539 16.784C14.8524 16.5763 14.4058 16.4679 13.9523 16.4681C12.8815 16.4681 11.9063 17.0725 11.4335 18.0152L3.10084 13.6869C2.21991 13.2315 1.56115 11.804 1.6309 10.5037C1.66707 9.82557 1.90474 9.29885 2.26771 9.09528C2.49763 8.96805 2.77405 8.97823 3.06855 9.12963L3.1228 9.1589C5.33159 10.3039 12.5573 14.0534 12.8621 14.192C13.331 14.407 13.5919 14.4936 14.3928 14.1195L29.3298 6.46803C29.5494 6.3866 29.8052 6.17922 29.8052 5.86497C29.8052 5.42985 29.3479 5.25809 29.3466 5.25809C28.4967 4.85732 27.1908 4.25554 25.9172 3.66774C23.1943 2.41201 20.1085 0.989599 18.7535 0.289846C17.5832 -0.313214 16.6416 0.195697 16.4737 0.29748L16.1482 0.456514C10.0488 3.42728 1.88537 7.40951 1.42036 7.68814C0.589804 8.18688 0.0744211 9.18052 0.00725335 10.4134C-0.0960816 12.3689 0.91531 14.4083 2.36329 15.1551L11.1752 19.631C11.2723 20.2885 11.6062 20.8896 12.1161 21.3246C12.626 21.7595 13.2778 21.9993 13.9523 22C14.689 21.9988 15.3958 21.7128 15.9207 21.2037C16.4456 20.6945 16.7466 20.0028 16.7591 19.2773L26.4649 14.0953C26.9557 14.4745 27.5667 14.6819 28.1919 14.6819C28.9364 14.6812 29.6503 14.3896 30.1768 13.871C30.7032 13.3524 30.9993 12.6493 31 11.9159C30.9993 11.1826 30.7032 10.4794 30.1768 9.96086C29.6503 9.44229 28.9364 9.15066 28.1919 9.14999" fill="white"/>
</svg>
