<svg width="40" height="40" viewBox="0 0 40 40" fill="none" xmlns="http://www.w3.org/2000/svg">
<g clip-path="url(#clip0_41_2482)">
<path d="M11.7575 22.7757C12.907 22.7757 14.0285 22.3925 14.9351 21.6916L7.64534 14.4019C5.88833 16.6729 6.30889 19.9439 8.57992 21.7009C9.49581 22.3925 10.608 22.7757 11.7575 22.7757Z" fill="#00193C"/>
<path d="M33.4393 17.5701C33.4393 16.4206 33.0561 15.2991 32.3551 14.3926L25.0654 21.6823C27.3365 23.4393 30.5981 23.0187 32.3551 20.7477C33.0561 19.8412 33.4393 18.7197 33.4393 17.5701Z" fill="#00193C"/>
<path d="M37.1122 9.6355L33.8879 12.8598C36.486 15.9719 36.0748 20.6075 32.9626 23.2056C30.2336 25.486 26.271 25.486 23.5421 23.2056L20 26.7476L16.4673 23.2149C13.3551 25.8131 8.71963 25.4019 6.1215 22.2897C3.84112 19.5607 3.84112 15.5981 6.1215 12.8691L4.46729 11.2149L2.8972 9.6355C1 12.757 0 16.3458 0 20C0 31.0467 8.95327 40 20 40C31.0467 40 40 31.0467 40 20C40.0093 16.3458 39 12.757 37.1122 9.6355Z" fill="#00193C"/>
<path d="M34.4673 6.19627C26.8505 -1.79438 14.1963 -2.09345 6.20563 5.52337C5.97198 5.74767 5.74768 5.97197 5.53273 6.19627C5.0374 6.71963 4.57011 7.26169 4.13086 7.83178L20 23.7103L35.8692 7.83178C35.4393 7.26169 34.9626 6.71963 34.4673 6.19627ZM20 2.61683C24.6729 2.61683 29.0281 4.42057 32.2991 7.71029L20 20.0094L7.70095 7.71029C10.972 4.42057 15.3271 2.61683 20 2.61683Z" fill="#00193C"/>
</g>
<defs>
<clipPath id="clip0_41_2482">
<rect width="40" height="40" fill="white"/>
</clipPath>
</defs>
</svg>
