<svg width="40" height="40" viewBox="0 0 40 40" fill="none" xmlns="http://www.w3.org/2000/svg">
<g clip-path="url(#clip0_43_3208)">
<path fill-rule="evenodd" clip-rule="evenodd" d="M9.30339 34.3446C4.93584 31.0816 2.10816 25.8708 2.10816 20C2.10816 10.1192 10.1192 2.10816 20 2.10816C28.1577 2.10816 37.0623 6.98442 39.2163 14.4455C36.8103 6.10449 29.1201 0 20 0C8.95509 0 0 8.95509 0 20C0 31.0449 8.95509 40 20 40C31.0449 40 40 31.0449 40 20V18.9459H38.9001C38.868 18.9459 38.8176 18.9459 38.7534 18.9459C38.6251 18.9459 38.4372 18.9413 38.1989 18.9322C37.7269 18.9184 37.0715 18.8863 36.3382 18.8222C34.8396 18.6939 33.1256 18.4372 31.9615 17.9698C30.0871 17.2227 29.0284 16.2282 27.8185 15.0687L27.7498 15C26.5399 13.8359 25.1787 12.5298 22.8185 11.4161C20.495 10.3208 17.9239 10.4995 16.0357 10.8845C15.0779 11.0816 14.253 11.3428 13.6709 11.5536C13.3776 11.659 13.1439 11.7553 12.9789 11.824C12.0302 12.2227 11.1045 12.6994 10.1742 13.1347C10.1742 13.1347 12.0028 13.6389 12.9102 13.9184C12.9423 13.9276 12.9927 13.9459 13.0614 13.9688C13.1943 14.0147 13.3914 14.0834 13.6297 14.1797C14.1063 14.3721 14.7342 14.6654 15.3529 15.0642C16.3291 15.692 17.1402 16.4803 17.4702 17.4519C15.3987 17.7223 13.4555 18.6343 11.9982 19.4913C11.1182 20.0092 10.385 20.527 9.87168 20.9166C9.61503 21.1091 9.4088 21.2741 9.27131 21.3886C9.15215 21.4849 7.28231 23.1347 7.28231 23.1347C7.28231 23.1347 9.69753 23.3914 10.8891 23.6297C11.6819 23.7901 12.7498 24.0467 13.8634 24.4363C14.9817 24.8258 16.1137 25.3391 17.0532 25.9945C17.9927 26.6499 18.6847 27.4106 19.0238 28.2768C20.0138 30.8066 19.0422 33.2722 17.0898 34.6563C15.1604 36.0312 12.2319 36.3566 9.30339 34.3446ZM16.1274 37.4748C16.9157 37.2182 17.6489 36.8469 18.3135 36.3795C20.967 34.4913 22.3648 31.0357 20.9853 27.516C20.4445 26.132 19.4088 25.0733 18.2585 24.2713C17.1082 23.4693 15.7837 22.8781 14.5555 22.4519C13.7489 22.1723 12.9698 21.9523 12.2915 21.7873C12.5344 21.6315 12.7956 21.4665 13.0706 21.3061C14.6929 20.3529 16.7324 19.4775 18.6893 19.4775C21.6407 19.4775 23.8359 20.3804 25.9303 21.352C26.1228 21.439 26.3107 21.5307 26.5032 21.6224C28.3776 22.5023 30.3437 23.4235 32.6306 23.4235C34.8488 23.4235 36.5765 22.7956 37.7681 22.1494C36.7094 31.022 29.1567 37.8964 20 37.8964C18.6709 37.8964 17.374 37.7498 16.1274 37.4748ZM35.495 20.8524C34.7067 21.1228 33.7534 21.3153 32.6352 21.3153C30.8433 21.3153 29.2988 20.5958 27.3419 19.6838C27.1677 19.6013 26.9936 19.5234 26.8149 19.4409C24.8533 18.5335 22.5894 17.571 19.6379 17.3969C19.2438 15.4445 17.7635 14.1063 16.494 13.2951C16.352 13.2035 16.2099 13.1164 16.0724 13.0385C16.2007 13.011 16.3291 12.9789 16.462 12.9514C18.1668 12.5985 20.2017 12.5115 21.9248 13.3226C23.9688 14.2851 25.1237 15.3941 26.3245 16.5445L26.3657 16.5857C27.6031 17.7727 28.9093 19.0147 31.187 19.9267C32.4473 20.4308 34.088 20.7012 35.495 20.8524Z" fill="url(#paint0_linear_43_3208)"/>
</g>
<defs>
<linearGradient id="paint0_linear_43_3208" x1="-0.355339" y1="20.3736" x2="40.3593" y2="19.6296" gradientUnits="userSpaceOnUse">
<stop stop-color="#29CCB9"/>
<stop offset="0.4948" stop-color="#0091FF"/>
<stop offset="1" stop-color="#FF66B7"/>
</linearGradient>
<clipPath id="clip0_43_3208">
<rect width="40" height="40" fill="white"/>
</clipPath>
</defs>
</svg>
