<svg width="17" height="17" viewBox="0 0 17 17" fill="none" xmlns="http://www.w3.org/2000/svg">
<path fill-rule="evenodd" clip-rule="evenodd" d="M1.5 0C0.671573 0 0 0.671573 0 1.5V6.5C0 7.32843 0.671573 8 1.5 8H6.5C7.32843 8 8 7.32843 8 6.5V1.5C8 0.671573 7.32843 0 6.5 0H1.5ZM1 1.5C1 1.22386 1.22386 1 1.5 1H6.5C6.77614 1 7 1.22386 7 1.5V6.5C7 6.77614 6.77614 7 6.5 7H1.5C1.22386 7 1 6.77614 1 6.5V1.5Z" fill="white"/>
<path fill-rule="evenodd" clip-rule="evenodd" d="M10.5 0C9.67157 0 9 0.671573 9 1.5V6.5C9 7.32843 9.67157 8 10.5 8H15.5C16.3284 8 17 7.32843 17 6.5V1.5C17 0.671573 16.3284 0 15.5 0H10.5ZM10 1.5C10 1.22386 10.2239 1 10.5 1H15.5C15.7761 1 16 1.22386 16 1.5V6.5C16 6.77614 15.7761 7 15.5 7H10.5C10.2239 7 10 6.77614 10 6.5V1.5Z" fill="white"/>
<path fill-rule="evenodd" clip-rule="evenodd" d="M9 10.5C9 9.67157 9.67157 9 10.5 9H15.5C16.3284 9 17 9.67157 17 10.5V15.5C17 16.3284 16.3284 17 15.5 17H10.5C9.67157 17 9 16.3284 9 15.5V10.5ZM10.5 10C10.2239 10 10 10.2239 10 10.5V15.5C10 15.7761 10.2239 16 10.5 16H15.5C15.7761 16 16 15.7761 16 15.5V10.5C16 10.2239 15.7761 10 15.5 10H10.5Z" fill="white"/>
<path fill-rule="evenodd" clip-rule="evenodd" d="M1.5 9C0.671573 9 0 9.67157 0 10.5V15.5C0 16.3284 0.671573 17 1.5 17H6.5C7.32843 17 8 16.3284 8 15.5V10.5C8 9.67157 7.32843 9 6.5 9H1.5ZM1 10.5C1 10.2239 1.22386 10 1.5 10H6.5C6.77614 10 7 10.2239 7 10.5V15.5C7 15.7761 6.77614 16 6.5 16H1.5C1.22386 16 1 15.7761 1 15.5V10.5Z" fill="white"/>
</svg>
