<svg width="40" height="40" viewBox="0 0 40 40" fill="none" xmlns="http://www.w3.org/2000/svg">
<g clip-path="url(#clip0_44_3213)">
<path d="M20 40C31.0457 40 40 31.0457 40 20C40 8.9543 31.0457 0 20 0C8.9543 0 0 8.9543 0 20C0 31.0457 8.9543 40 20 40Z" fill="#DFFE00"/>
<path d="M31.8564 30.5312H27.2237V20.0172L29.0788 14.0211L27.7644 13.5534L21.7523 30.5312H18.2291L12.2169 13.5534L10.9027 14.0211L12.7576 20.0172V30.5312H8.125V9.4375H15.0226L19.3009 21.5138V25.0591H20.6991V21.5138L24.9775 9.4375H31.875V30.5312H31.8564Z" fill="black"/>
</g>
<defs>
<clipPath id="clip0_44_3213">
<rect width="40" height="40" fill="white"/>
</clipPath>
</defs>
</svg>
