<svg width="40" height="40" viewBox="0 0 40 40" fill="none" xmlns="http://www.w3.org/2000/svg">
<path d="M27.1524 6.03593C31.2175 7.81442 34.0123 12.1336 33.7583 16.4528C26.3902 16.4528 19.0222 16.4528 11.9082 16.4528C11.9082 13.658 12.9245 10.6092 14.957 8.57664C17.7518 5.01965 23.0873 4.00337 27.1524 6.03593Z" fill="#5FC0C1"/>
<path d="M26.6448 33.7296C27.1529 33.7296 27.407 33.9837 27.407 34.2378C27.407 34.4918 27.1529 34.7459 26.6448 34.7459H14.9575C14.4494 34.7459 14.1953 34.4918 14.1953 34.2378C14.1953 33.9837 14.4494 33.7296 14.9575 33.7296H26.6448Z" fill="#E1177C"/>
<path d="M12.4165 35C12.9246 35 13.1787 34.7459 13.1787 34.2378C13.1787 33.7297 12.9246 33.4756 12.4165 33.4756C11.9084 33.4756 11.6543 33.7297 11.6543 34.2378C11.6543 34.7459 11.9084 35 12.4165 35Z" fill="#E1177C"/>
<path d="M19.5317 31.9512C20.0399 31.9512 20.294 31.6971 20.294 31.189C20.294 30.6808 20.0399 30.4268 19.5317 30.4268C19.0236 30.4268 18.7695 30.6808 18.7695 31.189C18.7695 31.6971 19.0236 31.9512 19.5317 31.9512Z" fill="#E1177C"/>
<path d="M33.251 30.4268C33.7592 30.4268 34.0133 30.6808 34.0133 31.189C34.0133 31.6971 33.7592 31.9512 33.251 31.9512H21.8179C21.3097 31.9512 21.0557 31.6971 21.0557 31.189C21.0557 30.6808 21.3097 30.4268 21.8179 30.4268H33.251Z" fill="#E1177C"/>
<path d="M4.28662 28.9022C4.79477 28.9022 5.04884 28.6482 5.04884 28.14C5.04884 27.6319 4.79477 27.3778 4.28662 27.3778C3.77848 27.3778 3.52441 27.6319 3.52441 28.14C3.52441 28.6482 4.03255 28.9022 4.28662 28.9022Z" fill="#E1177C"/>
<path d="M15.7195 27.3778C16.2276 27.3778 16.4817 27.6319 16.4817 28.14C16.4817 28.6482 16.2276 28.9022 15.7195 28.9022H6.31885C5.81071 28.9022 5.55664 28.6482 5.55664 28.14C5.55664 27.6319 5.81071 27.3778 6.31885 27.3778H15.7195Z" fill="#E1177C"/>
<path d="M37.0624 27.3778C37.5706 27.3778 37.8246 27.6319 37.8246 28.14C37.8246 28.6482 37.5706 28.9022 37.0624 28.9022H18.2612C17.7531 28.9022 17.499 28.6482 17.499 28.14C17.499 27.6319 17.7531 27.3778 18.2612 27.3778H37.0624Z" fill="#E1177C"/>
<path d="M33.5047 24.329C34.0128 24.329 34.2669 24.5831 34.2669 25.0912C34.2669 25.5993 34.0128 25.8534 33.5047 25.8534H10.3843C10.1302 26.1075 9.62207 25.5993 9.62207 25.0912C9.62207 24.5831 9.87614 24.329 10.3843 24.329H33.5047Z" fill="#E1177C"/>
<path d="M7.84327 26.1075C8.35141 26.1075 8.60548 25.8534 8.60548 25.3453C8.60548 24.8371 8.35141 24.329 7.84327 24.329C7.33512 24.329 7.08105 24.8371 7.08105 25.0912C7.08105 25.3453 7.33512 26.1075 7.84327 26.1075Z" fill="#E1177C"/>
<path d="M28.6775 21.5343C29.1857 21.5343 29.4397 21.7884 29.4397 22.2965C29.4397 22.8047 29.1857 23.0587 28.6775 23.0587H5.55713C5.30306 23.0587 4.79492 22.8047 4.79492 22.2965C4.79492 21.7884 5.04899 21.5343 5.55713 21.5343H28.6775Z" fill="#E1177C"/>
<path d="M2.76221 23.0587C3.27035 23.0587 3.52442 22.8047 3.52442 22.2965C3.52442 21.7884 3.27035 21.5343 2.76221 21.5343C2.25407 21.5343 2 21.7884 2 22.2965C2 22.8047 2.25407 23.0587 2.76221 23.0587Z" fill="#E1177C"/>
<path d="M7.84327 20.0099C8.35141 20.0099 8.60548 19.7558 8.60548 19.2477C8.60548 18.7395 8.35141 18.4855 7.84327 18.4855C7.33512 18.4855 7.08105 18.9936 7.08105 19.2477C7.08105 19.7558 7.33512 20.0099 7.84327 20.0099Z" fill="#E1177C"/>
<path d="M35.7911 18.4855C36.2993 18.4855 36.5534 18.7395 36.5534 19.2477C36.5534 19.7558 36.2993 20.0099 35.7911 20.0099H10.6382C10.13 20.0099 9.87598 19.7558 9.87598 19.2477C9.87598 18.7395 10.13 18.4855 10.6382 18.4855H35.7911Z" fill="#E1177C"/>
</svg>
