<svg width="40" height="40" viewBox="0 0 40 40" fill="none" xmlns="http://www.w3.org/2000/svg">
<g clip-path="url(#clip0_31_2339)">
<path d="M20 40C31.0457 40 40 31.0457 40 20C40 8.95431 31.0457 0 20 0C8.95431 0 0 8.95431 0 20C0 31.0457 8.95431 40 20 40Z" fill="#FF0420"/>
<path d="M14.1683 25.312C12.9763 25.312 12.0003 25.032 11.2403 24.472C10.4883 23.904 10.1123 23.088 10.1123 22.04C10.1123 21.816 10.1363 21.552 10.1843 21.232C10.3123 20.512 10.4963 19.648 10.7363 18.632C11.4163 15.88 13.1763 14.504 16.0083 14.504C16.7763 14.504 17.4723 14.632 18.0803 14.896C18.6883 15.144 19.1683 15.528 19.5203 16.04C19.8723 16.544 20.0483 17.144 20.0483 17.84C20.0483 18.048 20.0243 18.312 19.9763 18.632C19.8243 19.52 19.6483 20.392 19.4323 21.232C19.0803 22.6 18.4803 23.632 17.6163 24.312C16.7603 24.984 15.6083 25.312 14.1683 25.312ZM14.3843 23.152C14.9443 23.152 15.4163 22.984 15.8083 22.656C16.2083 22.328 16.4963 21.824 16.6643 21.136C16.8963 20.192 17.0723 19.376 17.1923 18.672C17.2323 18.464 17.2563 18.248 17.2563 18.024C17.2563 17.112 16.7843 16.656 15.8323 16.656C15.2723 16.656 14.7923 16.824 14.3923 17.152C14.0003 17.48 13.7203 17.984 13.5523 18.672C13.3683 19.344 13.1923 20.16 13.0083 21.136C12.9683 21.336 12.9443 21.544 12.9443 21.768C12.9363 22.696 13.4243 23.152 14.3843 23.152Z" fill="white"/>
<path d="M20.7436 25.168C20.6316 25.168 20.5516 25.136 20.4876 25.064C20.4396 24.984 20.4236 24.896 20.4396 24.792L22.5116 15.032C22.5276 14.92 22.5836 14.832 22.6796 14.76C22.7676 14.688 22.8636 14.656 22.9676 14.656H26.9596C28.0716 14.656 28.9596 14.888 29.6316 15.344C30.3116 15.808 30.6556 16.472 30.6556 17.344C30.6556 17.592 30.6236 17.856 30.5676 18.128C30.3196 19.28 29.8156 20.128 29.0476 20.68C28.2956 21.232 27.2636 21.504 25.9516 21.504H23.9276L23.2396 24.792C23.2156 24.904 23.1676 24.992 23.0716 25.064C22.9836 25.136 22.8876 25.168 22.7836 25.168H20.7436ZM26.0556 19.432C26.4796 19.432 26.8396 19.32 27.1516 19.088C27.4716 18.856 27.6796 18.528 27.7836 18.096C27.8156 17.928 27.8316 17.776 27.8316 17.648C27.8316 17.36 27.7436 17.136 27.5756 16.984C27.4076 16.824 27.1116 16.744 26.7036 16.744H24.9036L24.3356 19.432H26.0556Z" fill="white"/>
</g>
<defs>
<clipPath id="clip0_31_2339">
<rect width="40" height="40" fill="white"/>
</clipPath>
</defs>
</svg>
