<svg width="40" height="40" viewBox="0 0 40 40" fill="none" xmlns="http://www.w3.org/2000/svg">
<path d="M28.2298 14.5579C27.6449 14.2255 26.893 14.2255 26.2245 14.5579L21.5457 17.2997L18.3708 19.0445L13.7755 21.7863C13.1906 22.1187 12.4386 22.1187 11.7702 21.7863L8.17755 19.6261C7.59269 19.2938 7.17493 18.6291 7.17493 17.8813V13.727C7.17493 13.0623 7.50914 12.3976 8.17755 11.9822L11.7702 9.90504C12.3551 9.5727 13.107 9.5727 13.7755 9.90504L17.3681 12.0653C17.953 12.3976 18.3708 13.0623 18.3708 13.8101V16.5519L21.5457 14.724V11.8991C21.5457 11.2344 21.2115 10.5697 20.5431 10.1543L13.859 6.24926C13.2742 5.91691 12.5222 5.91691 11.8538 6.24926L5.00261 10.2374C4.3342 10.5697 4 11.2344 4 11.8991V19.7092C4 20.3739 4.3342 21.0386 5.00261 21.454L11.7702 25.3591C12.3551 25.6914 13.107 25.6914 13.7755 25.3591L18.3708 22.7003L21.5457 20.8724L26.141 18.2136C26.7258 17.8813 27.4778 17.8813 28.1462 18.2136L31.7389 20.2908C32.3238 20.6231 32.7415 21.2878 32.7415 22.0356V26.1899C32.7415 26.8546 32.4073 27.5193 31.7389 27.9347L28.2298 30.0119C27.6449 30.3442 26.893 30.3442 26.2245 30.0119L22.6319 27.9347C22.047 27.6024 21.6292 26.9377 21.6292 26.1899V23.5312L18.4543 25.3591V28.1009C18.4543 28.7656 18.7885 29.4303 19.4569 29.8457L26.2245 33.7507C26.8094 34.0831 27.5614 34.0831 28.2298 33.7507L34.9974 29.8457C35.5822 29.5134 36 28.8487 36 28.1009V20.2077C36 19.543 35.6658 18.8783 34.9974 18.4629L28.2298 14.5579Z" fill="#8247E5"/>
</svg>
