<svg width="40" height="40" viewBox="0 0 40 40" fill="none" xmlns="http://www.w3.org/2000/svg">
<g clip-path="url(#clip0_46_3229)">
<path d="M20 40C31.0457 40 40 31.0457 40 20C40 8.9543 31.0457 0 20 0C8.9543 0 0 8.9543 0 20C0 31.0457 8.9543 40 20 40Z" fill="#F34242"/>
<path opacity="0.75" d="M13.5488 16.7741V13.5483H16.7746V16.7741H13.5488Z" fill="white"/>
<path d="M13.5488 20V16.7742H16.7746V20H13.5488Z" fill="white"/>
<path d="M13.5488 23.2258V20H16.7746V23.2258H13.5488Z" fill="white"/>
<path opacity="0.75" d="M13.5488 26.4516V23.2258H16.7746V26.4516H13.5488Z" fill="white"/>
<path opacity="0.75" d="M23.2256 16.7741V13.5483H26.4514V16.7741H23.2256Z" fill="white"/>
<path d="M23.2256 20V16.7742H26.4514V20H23.2256Z" fill="white"/>
<path d="M23.2256 23.2258V20H26.4514V23.2258H23.2256Z" fill="white"/>
<path opacity="0.75" d="M23.2256 26.4516V23.2258H26.4514V26.4516H23.2256Z" fill="white"/>
<path d="M20.0002 26.4516H16.7744V23.2258H20.0002V26.4516Z" fill="white"/>
<path d="M23.2258 26.4516H20V23.2258H23.2258V26.4516Z" fill="white"/>
<path d="M20.0002 16.7741H16.7744V13.5483H20.0002V16.7741Z" fill="white"/>
<path d="M23.2258 16.7741H20V13.5483H23.2258V16.7741Z" fill="white"/>
<path opacity="0.25" d="M16.7744 7.09692V10.3227H20.0002V7.09692H16.7744Z" fill="white"/>
<path opacity="0.75" d="M20 29.6775V26.4517H23.2258V29.6775H20Z" fill="white"/>
<path opacity="0.75" d="M29.678 20H26.4521V23.2258H29.678V20Z" fill="white"/>
<path opacity="0.75" d="M10.3232 20H13.549V23.2258H10.3232V20Z" fill="white"/>
<path opacity="0.75" d="M20 10.3225V13.5483H23.2258V10.3225H20Z" fill="white"/>
<path opacity="0.25" d="M20 7.09692V10.3227H23.2258V7.09692H20Z" fill="white"/>
<path opacity="0.25" d="M16.7744 32.9033V29.6775H20.0002V32.9033H16.7744Z" fill="white"/>
<path opacity="0.25" d="M20 32.9033V29.6775H23.2258V32.9033H20Z" fill="white"/>
<path opacity="0.25" d="M32.9035 16.7742H29.6777V20H32.9035V16.7742Z" fill="white"/>
<path opacity="0.25" d="M32.9035 20H29.6777V23.2258H32.9035V20Z" fill="white"/>
<path opacity="0.25" d="M7.09668 20H10.3225V23.2258H7.09668V20Z" fill="white"/>
<path opacity="0.25" d="M7.09668 16.7742H10.3225V20H7.09668V16.7742Z" fill="white"/>
<path opacity="0.75" d="M16.7744 10.3225V13.5483H20.0002V10.3225H16.7744Z" fill="white"/>
<path opacity="0.75" d="M16.7744 29.6775V26.4517H20.0002V29.6775H16.7744Z" fill="white"/>
<path opacity="0.75" d="M29.678 16.7742H26.4521V20H29.678V16.7742Z" fill="white"/>
<path opacity="0.75" d="M10.3232 16.7742H13.549V20H10.3232V16.7742Z" fill="white"/>
</g>
<defs>
<clipPath id="clip0_46_3229">
<rect width="40" height="40" fill="white"/>
</clipPath>
</defs>
</svg>
