<svg width="18" height="18" viewBox="0 0 18 18" fill="none" xmlns="http://www.w3.org/2000/svg">
<g clip-path="url(#clip0_69_6849)">
<path d="M17.239 8.37231C16.82 8.37231 16.4744 8.6774 16.4744 9.10011C16.4377 11.8532 14.8498 14.3417 12.4201 15.676C8.75907 17.6866 4.48051 15.8818 2.84113 13.4338L5.15317 13.9153C5.53545 13.9925 5.95448 13.7609 6.03167 13.3419C6.10886 12.9596 5.87729 12.5406 5.45826 12.4634L0.911374 11.5077C0.646721 11.4452 -0.0479932 11.6364 0.032873 12.3495L0.606288 16.9368C0.643045 17.3191 0.951807 17.5874 1.33408 17.5874C1.90382 17.5874 2.13539 17.1683 2.09864 16.7456L1.83031 14.5071C5.54648 18.9658 10.2624 18.3446 13.1075 17.0544C16.0517 15.4849 17.9264 12.4671 17.9631 9.13687C17.9668 8.71783 17.658 8.37231 17.239 8.37231Z" fill="white"/>
<path d="M0.757092 9.62579C1.17613 9.62579 1.52165 9.32071 1.52165 8.898C1.5584 6.14487 3.14632 3.6564 5.57598 2.32211C9.23701 0.311479 13.5156 2.11627 15.1549 4.5643L12.8429 4.08278C12.4606 4.00559 12.0416 4.23716 11.9644 4.6562C11.8872 5.03847 12.1188 5.45751 12.5378 5.5347L17.0884 6.49039C17.353 6.55288 18.0477 6.36174 17.9669 5.64865L17.3935 1.06133C17.3567 0.679053 17.0479 0.410724 16.6657 0.410724C16.0959 0.410724 15.8644 0.829758 15.9011 1.25247L16.1658 3.49099C12.4496 -0.964001 7.73364 -0.346477 4.88862 0.947381C1.94435 2.51324 0.06973 5.5347 0.0292969 8.86124C0.0292969 9.28395 0.338059 9.62579 0.757092 9.62579Z" fill="white"/>
</g>
<defs>
<clipPath id="clip0_69_6849">
<rect width="18" height="18" fill="white"/>
</clipPath>
</defs>
</svg>
