<svg width="40" height="40" viewBox="0 0 40 40" fill="none" xmlns="http://www.w3.org/2000/svg">
<g clip-path="url(#clip0_41_2566)">
<path d="M40 0H0V40H40V0Z" fill="#FFEEDA"/>
<path d="M30.0363 23.6036V9.96394C30.0183 8.8198 29.1084 7.90088 27.9642 7.90088H13.73C10.6579 7.94592 8.18945 10.4594 8.18945 13.5405C8.18945 14.5766 8.46873 15.4684 8.89216 16.2522C9.25252 16.9009 9.82008 17.5135 10.3786 17.973C10.5408 18.0991 10.4597 18.045 10.9462 18.3423C11.6129 18.7477 12.3786 18.9549 12.3786 18.9549L12.3696 27.1171C12.3877 27.5045 12.4237 27.8738 12.5318 28.2252C12.8471 29.3784 13.6489 30.2612 14.73 30.6847C15.1804 30.8648 15.694 30.982 16.2435 30.991L27.6129 31.027C29.8741 31.027 31.712 29.1892 31.712 26.9189C31.721 25.5675 31.0453 24.3603 30.0363 23.6036Z" fill="#FFEEDA"/>
<path d="M30.3157 27.018C30.2707 28.4684 29.0725 29.6396 27.604 29.6396L19.7842 29.6126C20.4058 28.8919 20.7842 27.9549 20.7842 26.9279C20.7842 25.3243 19.8292 24.2162 19.8292 24.2162H27.613C29.1085 24.2162 30.3247 25.4324 30.3247 26.9279L30.3157 27.018Z" fill="#EBC28E"/>
<path d="M11.1264 16.8198C10.2255 15.964 9.59486 14.8649 9.59486 13.5496V13.4144C9.66693 11.1802 11.5048 9.37838 13.739 9.31532H27.9732C28.3426 9.33334 28.6399 9.5946 28.6399 9.97297V22.018C28.9642 22.0721 29.1264 22.1171 29.4417 22.2342C29.694 22.3243 30.0363 22.5225 30.0363 22.5225V9.97297C30.0183 8.82883 29.1084 7.90991 27.9642 7.90991H13.73C10.6579 7.95496 8.18945 10.4685 8.18945 13.5496C8.18945 15.3423 9.00927 16.8739 10.3426 17.9459C10.4327 18.018 10.5228 18.1171 10.757 18.1171C11.1714 18.1171 11.4687 17.7838 11.4507 17.4234C11.4507 17.1171 11.3156 17.009 11.1264 16.8198Z" fill="#101010"/>
<path d="M27.6041 22.8107H16.4419C15.6942 22.8197 15.0906 23.4233 15.0906 24.1711V25.7747C15.1086 26.5134 15.7392 27.1441 16.496 27.1441H17.3248V25.7747H16.487V24.2071C16.487 24.2071 16.6942 24.2071 16.9374 24.2071C18.3518 24.2071 19.3879 25.5134 19.3879 26.9188C19.3879 28.1621 18.2527 29.7477 16.3608 29.6215C14.6852 29.5134 13.7752 28.0179 13.7752 26.9188V13.3152C13.7752 12.7026 13.2707 12.1981 12.6581 12.1981H11.541V13.5945H12.3698V26.9279C12.3248 29.6396 14.2978 30.9999 16.3608 30.9999L27.6131 31.036C29.8743 31.036 31.7122 29.1981 31.7122 26.9279C31.7212 24.6576 29.8743 22.8107 27.6041 22.8107ZM30.3158 27.0179C30.2707 28.4684 29.0725 29.6396 27.6041 29.6396L19.7843 29.6125C20.4059 28.8918 20.7843 27.9549 20.7843 26.9279C20.7843 25.3242 19.8293 24.2161 19.8293 24.2161H27.6131C29.1086 24.2161 30.3248 25.4324 30.3248 26.9279L30.3158 27.0179Z" fill="#101010"/>
<path d="M24.5951 13.8468H16.1807V12.4504H24.5951C24.9735 12.4504 25.2888 12.7567 25.2888 13.1441C25.2978 13.5315 24.9915 13.8468 24.5951 13.8468Z" fill="#101010"/>
<path d="M24.5951 20.3964H16.1807V19.009H24.5951C24.9735 19.009 25.2888 19.3153 25.2888 19.7027C25.2978 20.0811 24.9915 20.3964 24.5951 20.3964Z" fill="#101010"/>
<path d="M26.0816 17.1171H16.1807V15.7207H26.0726C26.4509 15.7207 26.7662 16.027 26.7662 16.4144C26.7843 16.8018 26.469 17.1171 26.0816 17.1171Z" fill="#101010"/>
</g>
<defs>
<clipPath id="clip0_41_2566">
<rect width="40" height="40" rx="20" fill="white"/>
</clipPath>
</defs>
</svg>
